<?xml version="1.0" encoding="UTF-8"?>
<svg width="96px" height="96px" viewBox="0 0 96 96" version="1.1" xmlns="http://www.w3.org/2000/svg" xmlns:xlink="http://www.w3.org/1999/xlink">
    <!-- Generator: Sketch 59.1 (86144) - https://sketch.com -->
    <title>colis-envoye</title>
    <desc>Created with Sketch.</desc>
    <g id="colis-envoye" stroke="none" stroke-width="1" fill="none" fill-rule="evenodd">
        <path d="M95.9408865,27.4904577 C95.9310343,27.4512093 95.9162559,27.4119609 95.9064037,27.3727126 C95.8768469,27.2745916 95.8374379,27.1764706 95.7931028,27.0881617 C95.7684722,27.0489133 95.7487677,27.0047589 95.7241371,26.9704165 C95.6699497,26.8722955 95.6059101,26.7888927 95.5320183,26.7054899 C95.5123138,26.6809596 95.4926093,26.6515233 95.4679787,26.6318991 C95.3694562,26.5288721 95.2610815,26.4405632 95.1428545,26.3669725 C95.1330023,26.3620664 95.1280762,26.3522543 95.1182239,26.3473483 L70.6550956,11.2759653 C70.0590346,10.9080116 69.3004116,10.9080116 68.6994246,11.2759653 L36.0687838,31.3515184 C36.0638577,31.3564245 36.0540054,31.3613305 36.0490793,31.3662366 C35.9259262,31.4447334 35.8126254,31.5379483 35.7141029,31.6409753 C35.6943984,31.6605995 35.67962,31.6802237 35.6599155,31.704754 C35.5860237,31.7881568 35.517058,31.8764657 35.4579445,31.9745867 C35.4333139,32.0138351 35.4136094,32.0530835 35.3939049,32.0923318 C35.3495698,32.1855468 35.3101608,32.2787617 35.280604,32.3817887 C35.2658257,32.4210371 35.2510473,32.4553795 35.2411951,32.4946279 C35.2067122,32.6369033 35.1870077,32.7791787 35.1870077,32.9263602 L35.1870077,62.9857234 C35.1870077,63.6284158 35.5219841,64.2220478 36.0687838,64.5605652 L60.5516166,79.5877937 C60.5713211,79.6025119 60.5959518,79.6074179 60.6156562,79.61723 C60.724031,79.6761026 60.8373318,79.7251631 60.9555588,79.7644115 C60.9949677,79.7791297 61.0343767,79.7938478 61.0737857,79.8036599 C61.2166433,79.8380023 61.3693531,79.8625325 61.5269891,79.8625325 C61.684625,79.8625325 61.8324087,79.8380023 61.9801924,79.8036599 C62.0196014,79.7938478 62.0540843,79.7791297 62.0934932,79.7693176 C62.2166463,79.7251631 62.3299472,79.6761026 62.443248,79.612324 C62.4629525,79.6025119 62.482657,79.5976058 62.5023615,79.5877937 L95.1132978,59.5367708 C95.6650236,59.1982534 96,58.6046215 96,57.9619291 L96,27.9221901 C96,27.7701025 95.9753694,27.6278271 95.9408865,27.4904577 L95.9408865,27.4904577 Z M69.674797,15.0241868 L90.605895,27.917284 L85.132972,31.2877398 L64.2068001,18.3897365 L69.674797,15.0241868 Z M60.6698436,20.5680224 L81.6009416,33.4611196 L73.349685,38.5437865 L52.4136609,25.6457833 L60.6698436,20.5680224 Z M83.1871533,36.8364814 L83.1871533,47.4286415 L75.1230894,52.3886572 L75.1230894,41.8014031 L83.1871533,36.8364814 Z M59.6649144,74.6964627 L38.9062308,61.950547 L38.9062308,36.2477555 L59.6649144,49.0280135 L59.6649144,74.6964627 Z M61.5269891,45.8194574 L40.5811127,32.9263602 L48.8816305,27.819163 L69.8127285,40.7171663 L61.5269891,45.8194574 Z M92.2807769,56.9267527 L63.3841375,74.6964627 L63.3841375,49.0280135 L71.4038663,44.087622 L71.4038663,55.7051464 C71.4038663,56.3772752 71.7683994,56.9954374 72.3595342,57.3192366 C72.6403233,57.4762302 72.9555951,57.554727 73.2659409,57.554727 C73.6058434,57.554727 73.9408198,57.461512 74.2413133,57.2799882 L86.0246003,50.0386597 C86.5714,49.7001423 86.9063764,49.1016043 86.9063764,48.4638179 L86.9063764,34.5453564 L92.2807769,31.2386793 L92.2807769,56.9267527 Z" id="Fill-149" fill="#20458F" fill-rule="nonzero"></path>
        <path d="M34.3889757,70.4232939 C35.2608996,69.8885346 36.4086863,70.1583673 36.9456337,71.031644 C37.4825812,71.9000147 37.2116444,73.0431242 36.3347944,73.5778835 L36.3347944,73.5778835 L16.4923697,85.7252612 C16.1918762,85.9067851 15.8519737,86 15.5219234,86 C14.8963058,86 14.2854665,85.6860129 13.9357117,85.1169112 C13.3987643,84.2436344 13.6697011,83.105431 14.546551,82.5706716 L14.546551,82.5706716 Z M28.886496,63.4567041 C29.7633459,62.9219448 30.9062065,63.1966835 31.443154,64.0650542 C31.9801014,64.938331 31.7091646,66.0765344 30.8323147,66.6112937 L30.8323147,66.6112937 L2.83222979,83.7530295 C2.52681014,83.9394594 2.19183376,84.0277682 1.8617835,84.0277682 C1.23616584,84.0277682 0.625326546,83.7137811 0.275571791,83.1446794 C-0.26137565,82.2763087 0.00956113186,81.1381053 0.886411081,80.5984399 L0.886411081,80.5984399 Z M28.886496,53.0166315 C29.7633459,52.4818721 30.9062065,52.7517049 31.443154,53.6200756 C31.9801014,54.4933523 31.7091646,55.6364618 30.8323147,56.1712211 L30.8323147,56.1712211 L10.98989,68.3185988 C10.6893965,68.5001227 10.3544201,68.5884315 10.0194437,68.5884315 C9.39382604,68.5884315 8.78791287,68.2793504 8.433232,67.7102487 C7.89628456,66.836972 8.17214746,65.6987686 9.04407129,65.1640092 L9.04407129,65.1640092 Z" id="Combined-Shape" fill="#FFC928" fill-rule="nonzero"></path>
    </g>
</svg>