<?xml version="1.0" encoding="UTF-8"?>
<svg width="96px" height="96px" viewBox="0 0 96 96" version="1.1" xmlns="http://www.w3.org/2000/svg" xmlns:xlink="http://www.w3.org/1999/xlink">
    <!-- Generator: Sketch 59.1 (86144) - https://sketch.com -->
    <title>colis-multiple</title>
    <desc>Created with Sketch.</desc>
    <g id="colis-multiple" stroke="none" stroke-width="1" fill="none" fill-rule="evenodd">
        <path d="M23.0300763,83.7454532 L23.1967233,83.7520469 C23.1207282,83.7520469 23.0449529,83.7478728 22.9696601,83.7395684 C22.924641,83.7348562 22.8807182,83.7286218 22.8372558,83.7210364 C22.8273486,83.7188757 22.8170131,83.7169757 22.8066905,83.7149968 C22.6277771,83.6814375 22.4572028,83.6245977 22.2978364,83.5480578 C22.2825151,83.540464 22.2664749,83.5325951 22.2505064,83.5245143 C22.2150037,83.5063879 22.1806656,83.4875436 22.1469316,83.4677769 C22.1324116,83.4601786 22.1178962,83.4516001 22.1034518,83.4428388 L1.98836156,71.0413859 C1.37546696,70.665919 1,69.9922871 1,69.268961 L1,44.4715768 C1,44.4196842 1.00188687,44.3682494 1.00559534,44.3173361 L1,44.4699204 C1,44.399352 1.00357375,44.3293091 1.01059306,44.2600072 C1.01431944,44.222586 1.01904964,44.1855641 1.02473448,44.1488658 C1.02679223,44.136642 1.02895281,44.1235921 1.03123583,44.1105749 C1.03763123,44.0727553 1.0450478,44.0361545 1.05340719,43.999922 C1.05685833,43.9865615 1.06026304,43.9725361 1.063811,43.9585574 C1.14120379,43.6507723 1.28695454,43.3712336 1.48371066,43.1360477 C1.49367718,43.1243401 1.50401261,43.1122238 1.51449097,43.1002203 C1.53874904,43.0724053 1.56350302,43.0456039 1.58893829,43.0194714 C1.60328516,43.0045397 1.61746139,42.9903446 1.63185337,42.9763421 C1.64742911,42.9615364 1.66346387,42.9464705 1.67973447,42.9316598 C1.70418432,42.9088579 1.72922354,42.8870435 1.754824,42.8657905 C1.76592068,42.8573386 1.77649979,42.8487711 1.78716388,42.8403062 C1.85043452,42.7889916 1.91782569,42.7413421 1.98836156,42.6974954 L28.8011198,26.1327766 C29.4692302,25.7186586 30.3195524,25.7186586 30.9931843,26.1327766 L40.936,32.284 L40.9353093,18.6949122 C40.9349545,18.6792133 40.9347764,18.6634859 40.9347764,18.6477323 C40.9347764,17.9244062 41.3102434,17.2562959 41.923138,16.8753074 L68.7358963,0.310588479 C69.4040066,-0.103529493 70.2543288,-0.103529493 70.9279607,0.310588479 L90.9962145,12.7254686 C91.6078205,13.0886893 92.0170565,13.7548187 92.0170565,14.5153871 L92.0170565,39.3017281 C92.0170565,40.0360973 91.6305464,40.7097292 91.0066086,41.0907177 L81.98988,46.5184239 C81.653064,46.7227221 81.2831187,46.8165889 80.9186948,46.8165889 C80.2119335,46.8165889 79.5217369,46.4576866 79.1352268,45.806141 C78.5388969,44.823301 78.8591481,43.5422961 79.8419881,42.9459662 L87.8482689,38.125633 L87.848,18.254 L84.545,20.295 L84.545264,31.4682725 C84.545264,32.186077 84.169797,32.8597089 83.5569024,33.2406974 L73.8720634,39.2150394 C73.5407691,39.4193376 73.1597805,39.5242475 72.778792,39.5242475 C72.4309329,39.5242475 72.0775522,39.4359023 71.7628226,39.259212 C71.1057554,38.8947882 70.697159,38.19907 70.697159,37.4426145 L70.697,28.854 L65.213,32.243 L65.2131327,44.7338516 C65.2131327,45.8823387 64.2799869,46.8154846 63.1314997,46.8154846 C61.9830125,46.8154846 61.0498667,45.8823387 61.0498667,44.7338516 L61.049,32.243 L45.099,22.383 L45.0996989,33.7111355 C45.0996989,34.0704982 45.0083374,34.4087774 44.8476045,34.7039832 L51.0917099,38.5673589 L51.1575307,38.6110404 C51.1752625,38.6230194 51.1928007,38.635265 51.2101395,38.6477714 L51.0917099,38.5673589 C51.1633422,38.6118871 51.2317312,38.6603373 51.2966567,38.7123393 C51.3015689,38.7176087 51.3070895,38.7220876 51.3125866,38.7265942 L51.3572229,38.7627426 C51.3756058,38.7786339 51.3936851,38.7948203 51.4114552,38.8112925 C51.4154733,38.8167001 51.4204895,38.8214073 51.4254823,38.826139 C51.8384504,39.2148151 52.0800714,39.7595332 52.0800714,40.3397838 L52.077,40.41 L52.0773106,53.30775 C52.0773106,54.4562372 51.1441648,55.3893831 49.9956776,55.3893831 C48.8471905,55.3893831 47.9140446,54.4562372 47.9140446,53.30775 L47.914,44.075 L44.61,46.117 L44.6104875,57.2865955 C44.6104875,58.0099216 44.2350206,58.6835535 43.622126,59.0590204 L33.937287,65.038884 C33.6059926,65.2431822 33.2250041,65.348092 32.8440156,65.348092 C32.4961565,65.348092 32.1427758,65.2597469 31.8280461,65.0830565 C31.170979,64.7186327 30.7623826,64.0229145 30.7623826,63.266459 L30.762,54.676 L25.278,58.065 L25.278,77.933 L43.7921904,66.5081745 C44.7750304,65.9008015 46.0560353,66.204488 46.6634084,67.187328 C47.2652598,68.1646464 46.9615733,69.4456513 45.9842549,70.0530244 L24.2899947,83.4428388 L24.2551433,83.462693 C24.2161699,83.4857824 24.1763811,83.507637 24.135831,83.5282027 L24.2899947,83.4428388 C24.2275157,83.4807359 24.1637067,83.5152131 24.0987791,83.5462351 C23.9387746,83.623753 23.7669948,83.6811855 23.5870563,83.7154082 C23.5764335,83.7169757 23.566098,83.7188757 23.5557503,83.7206968 C23.5122497,83.7287054 23.467838,83.7349934 23.423002,83.7398539 C23.4034501,83.7418016 23.384086,83.743652 23.3646946,83.7452294 C23.3580951,83.7458755 23.3516744,83.7463594 23.3452458,83.7468139 L23.1967233,83.7520469 L23.1967233,83.7520469 C23.1406328,83.7520469 23.0850559,83.7498211 23.0300763,83.7454532 Z M5.168,48.208 L5.16878758,68.1094307 L21.115,77.936 L21.115,58.065 L5.168,48.208 Z M40.441,48.694 L34.925,52.103 L34.9256486,59.5283541 L40.4417,56.1270652 L40.441,48.694 Z M12.805,40.912 L7.04612239,44.4699204 L23.1967233,54.4529243 L28.948,50.897 L12.805,40.912 Z M22.492,34.928 L16.768,38.464 L32.908,48.45 L38.635,44.911 L22.492,34.928 Z M29.8943913,30.3567799 L26.456,32.479 L42.597,42.462 L46.033949,40.3397838 L29.8943913,30.3567799 Z M80.376,22.872 L74.86,26.281 L74.860425,33.7100311 L80.3764764,30.3032206 L80.376,22.872 Z M52.74,15.089 L46.9808988,18.6477323 L63.1314997,28.6307362 L68.885,25.074 L52.74,15.089 Z M62.428,9.105 L56.704,12.641 L72.844,22.627 L78.568,19.09 L62.428,9.105 Z M69.8291677,4.53459179 L66.392,6.657 L82.533,16.64 L85.9687255,14.5175957 L69.8291677,4.53459179 Z" id="Combined-Shape" fill="#20458F" fill-rule="nonzero"></path>
        <path d="M48.0352838,60.4555891 L48.0360714,80.3573838 L63.9822838,90.1845891 L63.9822838,70.3125891 L48.0352838,60.4555891 Z M90.7782838,56.3245891 L87.4772838,58.3645891 L87.4777714,69.5345487 C87.4777714,70.2578747 87.1023044,70.9315066 86.4894098,71.3069736 L76.8045708,77.2868371 C76.4732764,77.4911353 76.0922879,77.5960452 75.7112994,77.5960452 C75.3634403,77.5960452 75.0100596,77.5077 74.69533,77.3310097 C74.0382628,76.9665859 73.6296664,76.2708677 73.6296664,75.5144122 L73.6292838,66.9235891 L68.1452838,70.3125891 L68.1452838,90.1815891 L90.7785677,76.2106825 L90.7782838,56.3245891 Z M83.3082838,60.9415891 L77.7922838,64.3505891 L77.7929324,71.7763073 L83.3089838,68.3750183 L83.3082838,60.9415891 Z M55.6722838,53.1595891 L49.9134062,56.7173213 L66.0640071,66.7003253 L71.8152838,63.1445891 L55.6722838,53.1595891 Z M65.3582838,47.1765891 L59.6352838,50.7115891 L75.7752838,60.6975891 L81.5022838,57.1585891 L65.3582838,47.1765891 Z M72.7616751,42.6041809 L69.3232838,44.7275891 L85.4642838,54.7095891 L88.9012329,52.5871848 L72.7616751,42.6041809 Z M65.8832931,95.992241 L66.0640071,96 C65.9934161,96 65.9230147,95.9963984 65.8530136,95.9892304 C65.8024705,95.9842858 65.7532163,95.977485 65.7045397,95.9689896 C65.6946324,95.9668288 65.6842969,95.9649288 65.6739744,95.96295 C65.5547659,95.940746 65.4394205,95.9079952 65.3285729,95.8660439 C65.3173233,95.8610732 65.3056007,95.856532 65.2939084,95.8518827 C65.2536903,95.8364996 65.2146238,95.8194669 65.1762003,95.8012922 C65.1563435,95.7916303 65.1359941,95.7817048 65.1157602,95.7714388 C65.090536,95.758533 65.066144,95.7453759 65.0420495,95.7317525 C65.0181984,95.7189759 64.9943719,95.7051286 64.9707357,95.6907919 L44.8556454,83.2893391 C44.2427508,82.9138721 43.8672838,82.2402402 43.8672838,81.5169141 L43.8672838,56.7173213 L43.8728057,56.5669761 L43.8728057,56.5669761 L43.8692838,56.6325891 L43.8701916,56.6071841 C43.872124,56.5706356 43.8750135,56.5342612 43.8788417,56.4980917 C43.8824432,56.4652719 43.8866446,56.4329929 43.8915784,56.4009532 C43.8944639,56.3813224 43.8977958,56.3615634 43.9014079,56.341881 L43.9182108,56.260452 L43.9182108,56.260452 C43.9233751,56.2367594 43.9292411,56.2127116 43.935527,56.1888033 C43.9434829,56.1594026 43.951698,56.1307968 43.9605034,56.1024493 C43.966367,56.0826563 43.9728932,56.0626559 43.9797165,56.0427723 C43.9891592,56.0162859 43.9988201,55.9899829 44.0089911,55.9639339 L44.0372686,55.8939243 L44.0372686,55.8939243 L44.0631377,55.837782 L44.0631377,55.837782 C44.2320036,55.4748866 44.5049586,55.1628909 44.8556454,54.9448964 L71.6684037,38.3801776 C72.336514,37.9660596 73.1868362,37.9660596 73.8604681,38.3801776 L93.9589937,50.8147599 C94.2696206,51.0078522 94.5192604,51.2746964 94.6899425,51.5851018 L94.7134518,51.6307093 L94.7134518,51.6307093 C94.7244323,51.6502831 94.7343614,51.6702201 94.7439706,51.6903159 C94.7550145,51.7147598 94.7662065,51.7392728 94.7769311,51.7640341 C94.7873404,51.7868975 94.7968959,51.8101981 94.8060303,51.8336789 C94.8161056,51.8605806 94.8260241,51.8876323 94.8353901,51.9149393 C94.8416266,51.9322339 94.847408,51.9499077 94.8529546,51.9676682 C94.8641425,52.004263 94.8745324,52.0409703 94.8839245,52.0780726 L94.8919036,52.1099671 L94.8919036,52.1099671 C94.9116105,52.1941471 94.9263498,52.2800869 94.9356475,52.3676362 L94.9420308,52.4382238 L94.9420308,52.4382238 C94.945518,52.4878968 94.9473553,52.5384331 94.9473553,52.5893934 L94.9473553,77.3757344 C94.9473553,78.0990605 94.5718883,78.7671708 93.9589937,79.1481593 L67.1572786,95.6907919 L67.0974579,95.7252058 C67.0677741,95.7422393 67.0376322,95.7585625 67.0070553,95.7741521 L67.1572786,95.6907919 C67.0913108,95.7308051 67.0238605,95.7670058 66.9551764,95.7993525 C66.9158615,95.8183881 66.8755787,95.8359983 66.8346584,95.8523463 C66.8224135,95.856532 66.8106909,95.8610732 66.7989391,95.8655061 C66.6885937,95.9079952 66.5732483,95.940746 66.4543401,95.9633613 C66.4437173,95.9649288 66.4333818,95.9668288 66.4230341,95.96865 C66.3739551,95.9776321 66.3238379,95.9845208 66.2731894,95.9895891 C66.2639749,95.9903496 66.2549523,95.9912047 66.2459236,95.9920007 C66.2348367,95.9930998 66.2236952,95.9939776 66.2125296,95.9947671 L66.0640071,96 L66.0640071,96 C66.0031284,96 65.9428548,95.997378 65.8832931,95.992241 Z" id="Combined-Shape" fill="#FFC928"></path>
    </g>
</svg>