<?xml version="1.0" encoding="UTF-8"?>
<svg width="96px" height="96px" viewBox="0 0 96 96" version="1.1" xmlns="http://www.w3.org/2000/svg" xmlns:xlink="http://www.w3.org/1999/xlink">
    <!-- Generator: Sketch 59.1 (86144) - https://sketch.com -->
    <title>open-marketplace</title>
    <desc>Created with Sketch.</desc>
    <g id="open-marketplace" stroke="none" stroke-width="1" fill="none" fill-rule="evenodd">
        <rect id="Rectangle" fill="#FFC928" fill-rule="nonzero" x="54" y="58" width="16" height="28"></rect>
        <g id="Group" transform="translate(18.000000, 31.000000)" stroke="#20458F" stroke-linejoin="round" stroke-width="4">
            <path d="M60.6382979,21.8297872 L0,21.8297872 L7.27659574,9.70212766 L53.3617021,9.70212766 L60.6382979,21.8297872 Z M44.1471064,9.70212766 L48.5106383,21.8297872 L44.1471064,9.70212766 Z M12.1276596,21.8297872 L16.4911915,9.70212766 L12.1276596,21.8297872 Z M34.9288723,9.70212766 L36.3829787,21.8297872 L34.9288723,9.70212766 Z M24.2553191,21.8297872 L25.7094255,9.70212766 L24.2553191,21.8297872 Z M7.27659574,9.70212766 L7.27659574,0 L53.3617021,0 L53.3617021,9.70212766 L7.27659574,9.70212766 Z M12.1276596,21.8297872 C12.1276596,25.1794468 9.41348936,27.893617 6.06382979,27.893617 C2.71417021,27.893617 0,25.1794468 0,21.8297872 L12.1276596,21.8297872 Z M24.2553191,21.8297872 C24.2553191,25.1794468 21.5411489,27.893617 18.1914894,27.893617 C14.8418298,27.893617 12.1276596,25.1794468 12.1276596,21.8297872 L24.2553191,21.8297872 Z M36.3829787,21.8297872 C36.3829787,25.1794468 33.6688085,27.893617 30.3191489,27.893617 C26.9694894,27.893617 24.2553191,25.1794468 24.2553191,21.8297872 L36.3829787,21.8297872 Z M48.5106383,21.8297872 C48.5106383,25.1794468 45.7964681,27.893617 42.4468085,27.893617 C39.0971489,27.893617 36.3829787,25.1794468 36.3829787,21.8297872 L48.5106383,21.8297872 Z M60.6382979,21.8297872 C60.6382979,25.1794468 57.9241277,27.893617 54.5744681,27.893617 C51.2248085,27.893617 48.5106383,25.1794468 48.5106383,21.8297872 L60.6382979,21.8297872 Z M53.3617021,55.787234 L53.3617021,27.7711277 L53.3617021,55.787234 Z M7.27659574,27.7711277 L7.27659574,55.787234 L7.27659574,27.7711277 Z" id="Stroke-76"></path>
            <path d="M29.106383,38.8085106 L25.4680851,42.4468085 M18.1914894,32.7446809 L14.5531915,36.3829787 M26.6808511,32.7446809 L16.9787234,42.4468085" id="Stroke-77" stroke-linecap="round"></path>
            <line x1="36.3829787" y1="55.787234" x2="36.3829787" y2="25.4680851" id="Stroke-78"></line>
            <line x1="41.2340426" y1="37.5957447" x2="41.2340426" y2="42.4468085" id="Stroke-79" stroke-linecap="round"></line>
            <line x1="7.27659574" y1="48.5106383" x2="36.3829787" y2="48.5106383" id="Stroke-80"></line>
            <line x1="2.42553191" y1="55.787234" x2="58.212766" y2="55.787234" id="Stroke-81" stroke-linecap="round"></line>
        </g>
        <path d="M6.79705509,24.6242467 C7.40817539,23.5678837 8.76335566,23.2032124 9.81566586,23.8162852 L9.81566586,23.8162852 L18.5285498,28.8398675 C19.5883403,29.4480335 19.9496055,30.8006017 19.3383201,31.8572499 C18.9381735,32.5480522 18.2044694,32.9628587 17.4223725,32.9628587 C17.0334737,32.9628587 16.6524925,32.8620948 16.3198473,32.6649731 L16.3198473,32.6649731 L7.60696341,27.6413908 C6.54717288,27.0332248 6.18590769,25.6806566 6.79705509,24.6242467 Z M87.1798788,23.6745599 C88.239847,23.0604432 89.5944888,23.4226705 90.2039353,24.4819957 C90.814052,25.5366239 90.4509566,26.8892476 89.394911,27.4986312 L89.394911,27.4986312 L80.6862577,32.5197325 C80.3484979,32.7198437 79.9675167,32.8206076 79.5786179,32.8206076 C78.796521,32.8206076 78.0628169,32.4058011 77.6625323,31.7147605 C77.0513849,30.6583506 77.4126501,29.3057824 78.471459,28.6981812 L78.471459,28.6981812 Z M24.3935542,6.98892345 C25.4534074,6.38072151 26.807305,6.7432351 27.41137,7.7975475 L27.41137,7.7975475 L32.4417696,16.5000791 C33.052917,17.5564889 32.6916518,18.9090572 31.6378598,19.5137252 C31.3001001,19.7138363 30.9191188,19.8146003 30.53022,19.8146003 C29.7481232,19.8146003 29.0144191,19.3997938 28.6140454,18.7085991 L28.6140454,18.7085991 L23.5836459,10.0060675 C22.9724984,8.94965764 23.3337636,7.59708941 24.3935542,6.98892345 Z M69.5284726,7.71630128 C70.138487,6.66185002 71.4919149,6.29946218 72.5461994,6.90783128 C73.60599,7.51599723 73.9672551,8.86856546 73.3561968,9.92482128 L73.3561968,9.92482128 L68.3254811,18.6278993 C67.9253345,19.3187016 67.1916304,19.7335081 66.4095336,19.7335081 C66.0206348,19.7335081 65.6396535,19.6327441 65.3078924,19.4361309 C64.2481018,18.827965 63.8868366,17.4753967 64.497895,16.4191409 L64.497895,16.4191409 Z M48.4589903,0.5 C49.6831917,0.5 50.7144448,1.49354784 50.7144448,2.70791904 C50.7144448,2.85469661 50.6987925,2.99734333 50.6690842,3.1452386 L50.6690842,3.1452386 L50.6690842,12.3436942 C50.6963646,12.4772612 50.7099087,12.6172972 50.7099087,12.7606308 C50.7099087,13.9835603 49.7561784,14.9685499 48.5406393,14.9685499 C47.3124603,14.9685499 46.2488963,13.9720423 46.2488963,12.7606308 L46.2488963,12.7606308 L46.2488963,2.71244933 C46.2488963,1.49023997 47.2385847,0.5 48.4589903,0.5 Z" id="Combined-Shape" fill="#FFC928" fill-rule="nonzero"></path>
    </g>
</svg>