<svg xmlns="http://www.w3.org/2000/svg" xmlns:xlink="http://www.w3.org/1999/xlink" viewBox="0 0 139.14 143.87"><defs><style>.cls-1{opacity:0.17;}.cls-2{fill:#515760;}.cls-3{fill:#fff;}.cls-4{fill:#a0afbc;}.cls-5{fill:url(#Dégradé_sans_nom_54);}.cls-6{fill:url(#Dégradé_sans_nom_47);}.cls-7{fill:url(#Dégradé_sans_nom_62);}.cls-8{fill:url(#Dégradé_sans_nom_57);}.cls-9{fill:url(#Dégradé_sans_nom_14);}</style><linearGradient id="Dégradé_sans_nom_54" x1="24.82" y1="23.02" x2="31.25" y2="30.39" gradientUnits="userSpaceOnUse"><stop offset="0" stop-color="#ffd482"/><stop offset="1" stop-color="#ffc928"/></linearGradient><linearGradient id="Dégradé_sans_nom_47" x1="39.69" y1="6.34" x2="53.31" y2="21.47" xlink:href="#Dégradé_sans_nom_54"/><linearGradient id="Dégradé_sans_nom_62" x1="102.33" y1="50.45" x2="126.52" y2="93.93" gradientUnits="userSpaceOnUse"><stop offset="0" stop-color="#ffd482"/><stop offset="1" stop-color="#ffb528"/></linearGradient><linearGradient id="Dégradé_sans_nom_57" x1="91.75" y1="35.15" x2="72.15" y2="2.82" gradientUnits="userSpaceOnUse"><stop offset="0" stop-color="#ffc928"/><stop offset="0.04" stop-color="#ffcb35"/><stop offset="0.18" stop-color="#ffcf56"/><stop offset="0.31" stop-color="#ffd26e"/><stop offset="0.44" stop-color="#ffd37d"/><stop offset="0.54" stop-color="#ffd482"/><stop offset="0.64" stop-color="#ffd47e"/><stop offset="0.74" stop-color="#ffd274"/><stop offset="0.83" stop-color="#ffd062"/><stop offset="0.92" stop-color="#ffcd48"/><stop offset="1" stop-color="#ffc928"/></linearGradient><linearGradient id="Dégradé_sans_nom_14" x1="75.67" y1="32.66" x2="52.45" y2="86.38" gradientUnits="userSpaceOnUse"><stop offset="0" stop-color="#ffc928"/><stop offset="1" stop-color="#ff8314"/></linearGradient></defs><title>Fichier 1</title><g id="Calque_2" data-name="Calque 2"><g id="Calque_1-2" data-name="Calque 1"><g class="cls-1"><path class="cls-2" d="M137.91,93.06c1.64,1,1.65,2.5,0,3.45L58.19,143.16a6.48,6.48,0,0,1-5.92,0l-51-29.66c-1.64-1-1.65-2.5,0-3.45L81,63.41a6.48,6.48,0,0,1,5.91,0Z"/></g><path class="cls-3" d="M136.58,90.89c1.61.93,1.62,2.44,0,3.37L58.21,139.82a6.41,6.41,0,0,1-5.82,0l-50.17-29c-1.61-.93-1.62-2.44,0-3.37L80.6,61.93a6.41,6.41,0,0,1,5.81,0Z"/><polygon class="cls-4" points="131.53 94.73 65.09 133.34 13.57 103.59 80.01 64.98 131.53 94.73"/><path class="cls-5" d="M43.95,21.71l-.63-.45-.07,0c-.29-.2-.59-.38-.89-.56l-.4-.22,0,0c-.26-.14-.52-.26-.78-.38l-.07,0L41,20l-.52-.2-.1,0h0l-.57-.18h0l-.11,0-.41-.1h0l-.17,0-.28,0h-.06l-.17,0-.25,0h-1l-.17,0-.2,0h0l-.18,0-.19,0h0l-.17,0-.19,0h0l-.17.06-.19.07h0l-.14.06-.21.09,0,0-.29.16L13,32.71l.33-.17.21-.09.18-.07.19-.07.2-.07.19,0,.21-.05.19,0,.22,0,.2,0,.23,0h.9l.25,0,.23,0,.28,0,.21,0,.4.1.13,0,.57.18.14.05.52.2.17.07c.26.11.52.24.78.38l.44.24c.3.17.59.36.89.56s.47.32.7.49Z"/><path class="cls-6" d="M40.89,20.12l.79.57.19.14q.48.37,1,.76l.26.22.68.58.34.31.59.54.31.3c.38.37.75.74,1.11,1.13h0l22-12.78c-.36-.39-.74-.76-1.11-1.13l-.14-.14-.16-.15-.59-.55-.34-.31L65.08,9l-.26-.22q-.48-.39-1-.76l-.19-.14-.79-.57-.09-.07L62.32,7,62,6.79l-.87-.53-.68-.38-.13-.07L60,5.65l-.54-.26-.32-.15L59,5.14l-.17-.07-.88-.35-.17-.07-.07,0c-.33-.11-.66-.22-1-.31h0l-.19,0-.69-.17-.07,0-.29,0L54.94,4l-.1,0-.29,0-.43,0H52.49l-.3,0-.34,0h-.08l-.3.05L51.14,4h-.07l-.29.08-.33.09-.06,0-.28.1-.33.11-.06,0-.24.11-.36.16-.06,0L48.58,5l-22,12.78.55-.29.36-.16.3-.13.33-.11.34-.11.33-.09.36-.09.33-.06.38-.06.34,0,.39,0h1.14l.39,0,.43,0,.38,0,.48.08.36.07.69.17.21.05c.32.09.65.19,1,.31l.24.09.88.35.4.17.32.15.54.26.31.16.81.44.87.53.28.19Z"/><path class="cls-7" d="M135.1,76.45c0-.18,0-.37,0-.55s0-.27,0-.41,0-.49,0-.74,0-.22,0-.32v-.11c0-.46-.09-.93-.15-1.4,0-.06,0-.13,0-.19l0-.19q-.08-.54-.17-1.07c0-.07,0-.14,0-.21v-.06q-.12-.62-.26-1.24v0l-.07-.27c-.07-.3-.14-.6-.22-.9l0-.09-.11-.39c-.06-.23-.13-.47-.2-.7l0-.13-.13-.4-.2-.62,0-.15-.14-.4-.21-.59-.06-.17-.15-.39-.22-.57-.07-.17-.16-.39L132,63l-.07-.17-.17-.38-.26-.57-.08-.18-.18-.36L131,60.8l-.09-.18-.17-.33-.32-.61-.11-.21-.16-.29-.36-.63-.13-.24-.14-.24-.4-.67-.17-.28-.11-.17-.54-.84-.16-.25,0-.07q-.41-.61-.83-1.2l-.05-.07-.12-.16q-.41-.56-.83-1.11l-.14-.19L126,53q-.59-.75-1.21-1.46l-.11-.13-.14-.16q-.43-.49-.88-1l-.15-.16q-.51-.54-1-1l-.1-.1-.23-.22-.57-.53-.37-.33-.58-.5-.38-.31-.62-.49-.35-.27-.77-.56-.19-.13,0,0-.94-.62h0l-22,12.78.95.62.21.15.78.56.35.27.63.49.37.31.58.5.37.33.57.53.34.32q.53.51,1,1l.15.16q.44.47.88,1l.25.28q.62.71,1.21,1.46l.22.28q.42.54.83,1.11l.17.24q.42.59.83,1.2l.21.32.54.84.28.45.4.67.28.48.35.63.27.5.32.61.26.52.28.57.26.54.26.57.24.55.24.56.23.56.22.57.21.56.21.58.19.55.2.61.17.53c.07.23.13.47.2.7l.13.48c.08.3.15.6.22.9l.07.3q.14.62.26,1.24l0,.28q.1.54.17,1.07l.05.39c.06.47.11.93.15,1.4v.11c0,.11,0,.22,0,.33s0,.49,0,.73,0,.27,0,.41,0,.49,0,.73c0,5.87-2.09,10-5.43,11.95l22-12.78c3.34-1.94,5.42-6.08,5.43-11.95Q135.1,76.54,135.1,76.45Z"/><path class="cls-8" d="M73,17.73q.67.46,1.33,1l.36.28,1,.75.47.39.83.71.48.43.8.74.44.42c.47.45.93.91,1.38,1.39l.16.17q.6.64,1.19,1.31l.48.55.43.5.57.69.41.51.34.44q.56.73,1.11,1.47l.25.34q.56.78,1.09,1.58l.25.38q.38.57.74,1.16l.35.58.56.94.36.63.48.87.36.66.42.8.35.69.38.79.34.71.35.77.32.73.32.76.3.74.3.77.28.74.28.79.25.73c.09.28.18.56.27.84l.22.7c.09.31.18.62.26.92s.12.43.18.64c.11.42.21.83.31,1.25l.09.36q.19.84.35,1.68c0,.14,0,.28.07.42q.12.69.22,1.38c0,.27.08.53.11.8l0,.39c.05.45.1.89.13,1.33s.07,1,.09,1.47l22-12.78q0-.73-.09-1.47h0c0-.44-.08-.88-.13-1.32,0-.13,0-.27,0-.4s0-.35-.06-.52,0-.18,0-.27q-.1-.69-.22-1.38c0-.1,0-.21-.05-.31l0-.11q-.16-.84-.35-1.68v0l-.08-.32c-.1-.42-.2-.83-.31-1.25l0-.12c0-.17-.1-.35-.15-.52s-.17-.61-.26-.92l0-.17-.17-.52c-.09-.28-.18-.56-.27-.85l-.07-.21-.18-.52-.28-.79-.08-.23-.2-.51-.3-.77-.09-.23-.21-.5-.32-.76-.1-.24-.22-.49-.35-.77-.11-.25-.22-.46-.38-.79-.13-.27-.22-.42-.42-.8-.15-.29-.21-.37-.48-.86-.19-.34-.18-.29-.56-.93-.23-.38-.12-.19q-.37-.58-.75-1.16l-.2-.31,0-.06q-.54-.8-1.09-1.58l-.08-.11-.17-.23q-.54-.75-1.11-1.47L105.4,15l-.16-.2-.41-.51-.57-.69-.43-.5-.3-.35-.18-.2q-.59-.66-1.19-1.3L102,11c-.45-.47-.91-.94-1.38-1.39l-.14-.14-.3-.27-.8-.74L98.9,8l-.82-.71-.47-.39-1-.75-.36-.28q-.66-.5-1.33-1l0,0-.77-.51-.4-.26q-.61-.38-1.22-.74l-1-.54-.18-.09L91,2.57l-.76-.37L89.73,2l-.33-.15-.53-.22-.23-.1-1-.36-.09,0C87.14,1,86.68.83,86.23.7h0L85.95.63,85,.4l-.1,0L84.46.3l-.7-.12-.14,0-.41,0-.6-.06-.15,0H82l-.54,0H81l-.51,0h-.13l-.42,0-.48.05H79.3l-.43.08L78.42.3l-.1,0L77.9.43l-.46.12-.08,0L77,.71,76.5.87l-.08,0-.35.16-.48.21-.08,0q-.36.18-.7.38l-22,12.78c.26-.15.52-.29.79-.41l.48-.21.43-.19.47-.16.48-.16.46-.12.51-.13.46-.08.54-.09.48-.05.55,0,.51,0h.56l.54,0,.56,0,.6.06.54.07.7.12.5.09,1,.24.29.07c.45.12.91.27,1.36.43l1.05.39.23.1.85.37.46.21.76.37.44.22c.38.2.76.41,1.15.63s.82.48,1.22.74l.4.26Z"/><path class="cls-9" d="M70.57,16.2c13.34,7.7,24.21,26,24.84,41.56,9.9,6.22,17.76,20.15,17.73,31.65,0,11.82-8.4,16.59-18.69,10.65L21.37,57.87c-.34-.22-.68-.4-1-.6C14.61,54,10,45.95,10,39.37s4.68-9.23,10.4-5.93A15.38,15.38,0,0,1,22,34.49a27.75,27.75,0,0,1-.53-5.33c0-11.23,8-15.76,17.75-10.12a30.63,30.63,0,0,1,6.94,5.63C48.62,13.2,58.63,9.3,70.57,16.2Z"/><ellipse class="cls-4" cx="33.33" cy="121.28" rx="5.38" ry="2.52"/></g></g></svg>