<?xml version="1.0" encoding="UTF-8"?>
<svg width="265px" height="264px" viewBox="0 0 265 264" version="1.1" xmlns="http://www.w3.org/2000/svg" xmlns:xlink="http://www.w3.org/1999/xlink">
    <!-- Generator: Sketch 59.1 (86144) - https://sketch.com -->
    <title>Group 7 Copy</title>
    <desc>Created with Sketch.</desc>
    <defs>
        <rect id="path-1" x="0" y="0" width="275" height="275"></rect>
    </defs>
    <g id="Page-2" stroke="none" stroke-width="1" fill="none" fill-rule="evenodd">
        <g id="Group-7-Copy" transform="translate(129.500000, 126.500000) scale(-1, 1) translate(-129.500000, -126.500000) translate(-8.000000, -11.000000)">
            <mask id="mask-2" fill="white">
                <use xlink:href="#path-1"></use>
            </mask>
            <g id="Mask" fill-rule="nonzero"></g>
            <g mask="url(#mask-2)">
                <g transform="translate(2.000000, 11.000000)">
                    <path d="M249.252175,131.624698 C255.720866,163.556648 247.341809,197.395203 226.015227,219.684414 C194.388157,252.740229 44.1566093,227.855328 11.5549948,152.222658 C-10.8420192,100.263056 -0.276488422,57.5501344 49.7959402,32.4554109 C98.3295653,8.13420871 154.556286,18.0129684 197.971015,52.1917254 C224.575076,73.1385683 241.838442,95.0331821 249.252175,131.624698 Z" id="Fill-145" fill="#FFFFFF" fill-rule="evenodd"></path>
                    <path d="M191.091468,282.388416 C191.100468,281.379416 190.692468,280.837416 189.732468,280.732416 C188.977468,280.652416 188.446468,281.207416 188.416468,282.020416 C188.383468,282.912416 189.012468,283.695416 189.783468,283.716416 C190.477468,283.737416 191.080468,283.126416 191.091468,282.388416 Z M143.139468,286.983416 C143.010468,286.802416 142.925468,286.619416 142.908468,286.381416 C142.615468,282.202416 141.861468,278.089416 141.150468,273.969416 C140.564468,270.574416 139.923468,267.188416 139.413468,263.782416 C139.040468,261.279416 138.672468,258.774416 138.433468,256.251416 C138.114468,252.882416 137.907468,249.512416 137.729468,246.132416 C137.477468,241.309416 137.508468,236.487416 137.626468,231.667416 C137.678468,229.543416 137.944468,227.421416 138.174468,225.304416 C138.398468,223.260416 138.633468,221.217416 138.935468,219.185416 C139.235468,217.157416 139.637468,215.143416 140.044468,213.133416 C140.669468,210.048416 141.337468,206.969416 141.985468,203.889416 C142.576468,201.089416 143.451468,198.370416 144.293468,195.643416 C144.347468,195.468416 144.388468,195.289416 144.457468,195.118416 C144.775468,194.324416 144.900468,193.516416 144.649468,192.677416 C145.329468,192.687416 145.797468,193.236416 146.462468,193.351416 C147.749468,193.576416 149.027468,193.794416 150.343468,193.779416 C152.550468,193.753416 154.759468,193.774416 156.966468,193.772416 C157.438468,193.772416 157.889468,193.720416 158.360468,193.590416 C159.224468,193.349416 160.126468,193.232416 161.018468,193.116416 C162.199468,192.963416 163.397468,192.933416 164.564468,192.666416 C165.928468,192.356416 167.306468,192.079416 168.619468,191.593416 C170.929468,190.736416 173.173468,189.717416 175.267468,188.414416 C177.029468,187.323416 178.803468,186.222416 179.981468,184.428416 C180.070468,184.293416 180.220468,184.273416 180.371468,184.277738 C181.525468,186.246416 182.936468,188.036416 184.228468,189.908416 C187.445468,194.567416 190.328468,199.427416 192.657468,204.578416 C194.389468,208.409416 196.186468,212.221416 197.568468,216.204416 C198.720468,219.529416 199.596468,222.929416 200.333468,226.362416 C200.893468,228.974416 201.400468,231.601416 201.824468,234.237416 C202.148468,236.262416 202.415468,238.298416 202.631468,240.343416 C202.881468,242.716416 203.120468,245.090416 203.196468,247.474416 C203.290468,250.418416 203.061468,253.350416 202.837468,256.282416 C202.725468,257.748416 202.657468,259.218416 202.600468,260.686416 C202.494468,263.446416 202.009468,266.151416 201.573468,268.864416 C201.236468,270.962416 200.911468,273.061416 200.566468,275.157416 C200.046468,278.308416 199.853468,281.495416 199.515468,284.668416 C199.487468,284.924416 199.482468,285.160416 199.630468,285.404416 C199.747468,285.599416 199.529468,285.722416 199.400468,285.846416 C197.567468,286.500416 195.732468,287.154416 193.898468,287.811416 C193.728468,287.773416 193.510468,287.787416 193.505468,287.533416 C193.498468,287.239416 193.478468,286.941416 193.526468,286.653416 C193.865468,284.587416 193.935468,282.494416 194.063468,280.412416 C194.283468,276.860416 194.408468,273.301416 194.557468,269.745416 C194.569468,269.463416 194.775468,268.968416 194.275468,268.963416 C193.901468,268.960416 194.015468,269.424416 194.002468,269.695416 C193.888468,272.042416 193.754468,274.387416 193.700468,276.737416 C193.658468,278.530416 193.496468,280.322416 193.374468,282.113416 C193.236468,284.125416 193.084468,286.136416 192.937468,288.145416 C190.628468,288.769416 188.323468,289.417416 186.004468,290.007416 C184.458468,290.401416 182.892468,290.714416 181.335468,291.062416 C180.412468,290.990416 179.512468,291.218416 178.604468,291.302416 C174.029468,291.717416 169.451468,291.823416 164.866468,291.632416 C164.026468,291.598416 163.192468,291.435416 162.347468,291.516416 C161.907468,291.487416 161.463468,291.487416 161.028468,291.427416 C159.150468,291.155416 157.269468,290.897416 155.398468,290.576416 C153.350468,290.227416 151.306468,289.831416 149.334468,289.156416 C147.263468,288.448416 145.204468,287.709416 143.139468,286.983416 L143.139468,286.983416 Z" id="Fill-148" fill="#3C3C3C" fill-rule="evenodd"></path>
                    <path d="M100.294468,165.025416 C100.194468,165.087416 100.151468,165.196416 100.195468,165.298416 C100.235468,165.393416 100.319468,165.474416 100.398468,165.546416 C101.799468,166.849416 103.010468,168.293416 103.811468,170.051416 L104.062468,170.222416 C104.225468,170.182416 104.207468,170.008416 104.205468,169.871416 C104.199468,169.475416 103.903468,169.211416 103.724468,168.906416 C102.928468,167.540416 101.954468,166.315416 100.768468,165.263416 C100.631468,165.140416 100.499468,165.013416 100.294468,165.025416 Z M151.947468,149.757416 C151.933468,149.074416 151.508468,148.638416 150.876468,148.653416 C150.295468,148.670416 149.723468,149.284416 149.734468,149.880416 C149.743468,150.438416 150.316468,151.025416 150.847468,151.023421 C151.408468,151.022416 151.959468,150.385416 151.947468,149.757416 Z M152.974468,157.907416 C152.954468,157.174416 152.403468,156.596416 151.757468,156.619416 C150.976468,156.647416 150.720468,157.206416 150.664468,157.877416 C150.619468,158.441416 151.413468,159.276416 151.885468,159.261416 C152.364468,159.245416 152.990468,158.467416 152.974468,157.907416 Z M180.371468,184.278416 C180.220468,184.273416 180.070468,184.293416 179.981468,184.428416 C178.803468,186.222416 177.029468,187.323416 175.267468,188.414416 C173.173468,189.717416 170.929468,190.736416 168.619468,191.593416 C167.306468,192.079416 165.928468,192.356416 164.564468,192.666416 C163.397468,192.933416 162.199468,192.963416 161.018468,193.116416 C160.126468,193.232416 159.224468,193.349416 158.360468,193.590416 C157.889468,193.720416 157.438468,193.772416 156.966468,193.772416 C154.759468,193.774416 152.550468,193.753416 150.343468,193.780148 C149.027468,193.794416 147.749468,193.576416 146.462468,193.351416 C145.797468,193.236416 145.329468,192.687416 144.649468,192.677416 C143.154468,192.101416 142.085468,190.992416 141.128468,189.776416 C138.272468,186.149416 136.214468,182.069416 134.501468,177.807416 C133.604468,175.571416 132.740468,173.321416 131.901468,171.064416 C131.611468,170.280416 131.375468,169.464416 131.235468,168.642416 C130.852468,166.390416 130.050468,164.280416 129.193468,162.183416 C128.447468,160.358416 127.658468,158.543416 127.305468,156.591416 C126.912468,154.413416 126.845468,152.229416 127.123468,150.022416 C127.348468,148.230416 127.706468,146.491416 128.434468,144.836416 C128.500468,144.688416 128.508468,144.545416 128.330468,144.487416 C128.156468,144.429416 128.050468,144.559416 127.993468,144.694416 C127.547468,145.737416 127.204468,146.815416 126.971468,147.924416 C126.527468,150.020416 126.393468,152.145416 126.534468,154.276416 C126.675468,156.404416 127.214468,158.446416 127.994468,160.434416 C128.808468,162.505416 129.639468,164.569416 130.360468,166.680416 C130.888468,168.230416 130.533468,169.287416 129.462468,170.404416 C127.693468,172.251416 125.633468,173.719416 123.591468,175.215416 C121.015468,177.100416 118.315468,178.776416 115.454468,180.213416 C114.185468,180.850416 112.955468,181.571416 111.614468,182.041416 C107.956468,183.324416 104.169468,183.649416 100.335468,183.331416 C98.0464684,183.142416 95.7604684,182.808416 93.5944684,181.958416 C91.4914684,181.134416 89.6574684,179.869416 87.8994684,178.475416 C87.0384684,177.789416 86.3154684,176.945416 85.3644684,176.373416 C85.1744684,176.260416 85.1874684,176.071416 85.2184684,175.883416 C85.9944684,176.037416 86.7244684,176.460416 87.5554684,176.295416 C88.9064684,176.029416 90.2794684,175.865416 91.5154684,175.166416 C93.6444684,173.963416 95.1774684,172.320416 95.7034684,169.851416 C95.8344684,169.231416 95.7214684,168.605416 95.8754684,167.998416 C96.1884684,166.773416 95.8544684,165.612416 95.4824684,164.468416 C95.3874684,164.174416 95.2714684,163.831416 94.9134684,163.705416 C95.8564684,163.154416 96.7494684,163.578416 97.6174684,163.899416 C98.2304684,164.124416 98.7914684,164.490416 99.3754684,164.794416 C99.5794684,164.899416 99.8174684,165.256416 100.003468,164.921416 C100.145468,164.664416 99.7804684,164.509416 99.5664684,164.383416 C98.8404684,163.955416 98.0914684,163.570416 97.3024684,163.272416 C97.2014684,163.232416 97.0044684,163.204416 97.0044684,163.178416 C97.0114684,163.010416 97.1884684,162.989416 97.3004684,162.961416 C98.5424684,162.650416 99.7624684,162.278416 100.913468,161.708416 C102.337468,161.004416 103.626468,160.103416 104.793468,159.029416 C106.775468,157.206416 108.425468,155.082416 110.194468,153.064416 C112.751468,150.147416 114.551468,146.727416 116.608468,143.479416 C118.843468,139.950416 121.033468,136.394416 123.295468,132.882416 C124.229468,131.429416 125.455468,130.192416 126.562468,128.867416 C127.104468,128.220416 127.676468,127.596416 128.240468,126.968416 C130.449468,124.503416 133.187468,122.720416 135.959468,120.983416 C136.827468,120.438416 137.675468,119.862416 138.596468,119.403416 C138.766468,119.319416 138.921468,119.244416 139.109468,119.249416 C139.227468,119.782416 139.328468,120.322416 139.466468,120.850416 C140.258468,123.892416 141.457468,126.782416 142.773468,129.627416 C144.296468,132.921416 146.098468,136.059416 148.079468,139.092416 C148.699468,140.040416 149.304468,141.011416 150.100468,141.828416 C150.716468,142.462416 150.953468,142.438416 151.463468,141.698416 C151.796468,141.218416 152.099468,140.716416 152.403468,140.219416 C154.762468,136.345416 156.811468,132.299416 159.033468,128.351416 C160.520468,125.707416 161.938468,123.022416 163.608468,120.482416 C164.832468,118.618416 166.011468,116.728416 167.211468,114.850416 C167.924468,115.088416 168.443468,115.652416 169.103468,115.981416 C169.606468,116.232416 170.043468,116.637416 170.656468,116.618416 C170.662468,116.917416 170.818468,117.056416 171.113468,117.043416 C171.972468,117.510416 172.886468,117.852416 173.811468,118.147416 C174.423468,118.340416 175.067468,118.438416 175.696468,118.578416 C176.021468,118.956416 176.499468,119.070416 176.923468,119.265416 C180.245468,120.783416 183.122468,122.916416 185.537468,125.636416 C187.707468,128.079416 189.706468,130.656416 191.300468,133.532416 C192.826468,136.287416 194.504468,138.963416 195.947468,141.757416 C197.691468,145.132416 199.329468,148.567416 200.553468,152.177416 C201.362468,154.564416 202.246468,156.926416 203.332468,159.201416 C204.391468,161.418416 205.599468,163.559416 207.045468,165.550416 C207.626468,166.351416 208.317468,167.074416 209.248468,167.511416 C209.367468,167.569416 209.441468,167.723416 209.535468,167.830416 C209.394468,167.843416 209.254468,167.871416 209.113468,167.865416 C206.887468,167.765416 205.055468,168.716416 203.426468,170.097416 C202.788468,170.637416 202.294468,171.347416 201.746468,171.990416 C201.632468,172.124416 201.519468,172.327416 201.715468,172.469416 C201.855468,172.572416 201.971468,172.412416 202.064468,172.310416 C202.338468,172.010416 202.630468,171.725416 202.874468,171.404416 C204.034468,169.886416 205.567468,168.938416 207.401468,168.491416 C208.668468,168.184416 209.947468,168.234416 211.200468,168.637416 C211.210468,168.939416 210.978468,169.089416 210.792468,169.253416 C209.881468,170.058416 209.362468,171.108416 209.044468,172.237416 C208.442468,174.372416 208.301468,176.570416 208.812468,178.728416 C209.161468,180.200416 209.567468,181.712416 210.526468,182.938416 C211.348468,183.989416 212.187468,185.124416 213.831468,184.735416 C214.081468,184.672416 214.076468,184.940416 214.118468,185.109416 C213.594468,185.372416 213.088468,185.658416 212.603468,185.997416 C210.828468,187.234416 208.762468,187.725416 206.716468,188.292416 C204.454468,188.920416 202.206468,188.899416 200.004468,188.207416 C198.320468,187.679416 196.817468,186.732416 195.428468,185.632416 C192.069468,182.970416 189.498468,179.640416 187.300468,176.000416 C186.599468,174.840416 185.914468,173.669416 185.226468,172.501416 C184.537468,171.331416 183.976468,170.092416 183.619468,168.790416 C183.054468,166.736416 182.280468,164.769416 181.346468,162.865416 C180.388468,160.916416 179.824468,158.839416 179.237468,156.770416 C178.639468,154.664416 178.071468,152.550416 177.510468,150.434416 C177.351468,149.836416 177.258468,149.220416 177.146468,148.611416 C177.111468,148.414416 177.056468,148.222416 176.827468,148.260416 C176.664468,148.288416 176.664468,148.482416 176.687468,148.625416 C176.767468,149.129416 176.818468,149.644416 176.948468,150.137416 C177.878468,153.665416 178.782468,157.203416 179.957468,160.656416 C180.508468,162.278416 181.291468,163.821416 181.984468,165.391416 C182.464468,166.478416 182.739468,167.579416 182.688468,168.792416 C182.599468,170.887416 182.992468,172.978416 182.859468,175.071416 C182.706468,177.482416 182.411468,179.881416 181.491468,182.142416 C181.188468,182.883416 180.748468,183.568416 180.371468,184.278416 L180.371468,184.278416 Z" id="Fill-149" fill="#5382E0" fill-rule="evenodd"></path>
                    <path d="M145.515468,83.3924159 C145.878468,83.3874159 146.427468,82.5944159 146.304468,82.2424159 L146.176468,82.0694159 C146.034468,81.9194159 145.854468,81.9054159 145.677468,81.9734159 C145.340468,82.0994159 145.073468,82.5844159 145.108468,82.9454159 C145.128468,83.1544159 145.267468,83.2634159 145.414468,83.3694159 L145.515468,83.3924159 Z M151.884468,83.4274159 C151.866468,83.2084159 151.506468,82.8784159 151.286468,82.8774159 C150.972468,82.8774159 150.502468,83.4474159 150.464468,83.9094159 C150.438468,84.2264159 150.565468,84.4694159 150.899468,84.5544159 L151.005468,84.5554159 C151.359468,84.5064159 151.916468,83.7904159 151.884468,83.4274159 Z M160.633468,91.6324159 C160.599468,91.6364159 160.486468,91.6344159 160.383468,91.6644159 C160.279468,91.6934159 160.173468,91.7524159 160.208468,91.8894159 L160.323468,92.0474159 C160.462468,92.0874159 160.613468,92.0754159 160.754468,92.1124159 C161.556468,92.3204159 161.751468,92.7574159 161.354468,93.4704159 C161.266468,93.6274159 161.121468,93.7544159 161.048468,93.9154159 L161.130468,94.2014159 C161.202468,94.2774159 161.320468,94.2654159 161.423468,94.1964159 C161.977468,93.8394159 162.274468,93.0744159 162.086468,92.4774159 C161.910468,91.9244159 161.420468,91.6214159 160.633468,91.6324159 Z M147.713468,81.9614159 L147.534468,82.0624159 C146.656468,83.5084159 145.631468,84.8474159 144.532468,86.1304159 C144.398468,86.2874159 144.402468,86.4764159 144.519468,86.6404159 C144.692468,86.8764159 144.879468,87.1044159 145.068468,87.3284159 C145.144468,87.4184159 145.258468,87.4364159 145.358468,87.3704159 C145.474468,87.2924159 145.459468,87.1544159 145.383468,87.0824159 C144.821468,86.5594159 145.113468,86.1474159 145.496468,85.6794159 C146.100468,84.9434159 146.662468,84.1694159 147.219468,83.3974159 C147.474468,83.0414159 147.679468,82.6484159 147.894468,82.2654159 C147.948468,82.1694159 147.927468,82.0514159 147.819468,81.9824159 L147.713468,81.9614159 Z M158.583467,95.3054159 C158.582468,95.9424159 159.104468,96.6184159 159.624468,96.6544159 C160.132468,96.6894159 160.779468,95.9744159 160.760468,95.4044159 C160.740468,94.8294159 160.111468,94.2814159 159.492468,94.3004159 C158.967468,94.3144159 158.584468,94.7384159 158.583467,95.3054159 Z M149.543468,91.2094159 C149.501468,91.0694159 149.501468,90.8764159 149.409468,90.8134159 C149.293468,90.7314159 149.134468,90.8284159 149.036468,90.9524159 C148.248468,91.9614159 147.154468,91.9904159 146.035468,91.8454159 C145.495468,91.7734159 144.987468,91.5464159 144.522468,91.2424159 C144.399468,91.1624159 144.222468,91.1684159 144.120468,91.2914159 L144.246468,91.5604159 C144.800468,92.0714159 145.030468,92.7854159 145.400468,93.4084159 C146.192468,94.7434159 147.402468,94.8684159 148.451468,93.7054159 C149.091468,92.9994159 149.202468,92.0664159 149.543468,91.2094159 Z M167.211468,114.850416 C166.011468,116.728416 164.832468,118.618416 163.608468,120.482416 C161.938468,123.022416 160.520468,125.707416 159.033468,128.351416 C156.811468,132.299416 154.762468,136.345416 152.403468,140.219416 C152.099468,140.716416 151.796468,141.218416 151.463468,141.698416 C150.953468,142.438416 150.716468,142.462416 150.100468,141.828416 C149.304468,141.011416 148.699468,140.040416 148.079468,139.092416 C146.098468,136.059416 144.296468,132.921416 142.773468,129.627416 C141.457468,126.782416 140.258468,123.892416 139.466468,120.850416 C139.328468,120.322416 139.227468,119.782416 139.109468,119.249416 C139.220468,118.930416 139.535468,118.875416 139.779468,118.727416 C142.079468,117.326416 144.152468,115.673416 145.589468,113.348416 C146.676468,111.585416 147.177468,109.697416 146.683468,107.618416 C146.608468,107.302416 146.614468,106.954416 146.652468,106.629416 C146.750468,105.810416 146.407468,105.049416 146.371468,104.244416 C146.355468,103.868416 146.125468,103.499416 145.588468,103.320416 C144.004468,102.795416 142.824468,101.706416 142.005468,100.267416 C141.066468,98.6164159 140.451468,96.8664159 140.186468,94.9564159 C139.998468,93.5974159 139.960468,92.2504159 140.029468,90.9074159 C140.119468,89.1324159 140.608468,87.4184159 141.194468,85.7434159 C141.637468,84.4764159 142.160468,83.2344159 142.904468,82.1144159 C143.498468,81.2234159 144.330468,80.5294159 145.129468,79.8254159 C145.670468,79.3494159 146.308468,78.9854159 146.904468,78.5704159 C148.195468,77.6474159 149.653468,77.2524159 151.220468,77.267005 C154.104468,77.2974159 156.729468,78.1444159 159.066468,79.8534159 C159.329468,80.0444159 159.617468,80.2024159 159.894468,80.3754159 C159.987468,80.6454159 160.213468,80.7804159 160.433468,80.9224159 L160.445468,80.9784159 C160.542468,81.0024159 160.640468,81.0264159 160.738468,81.0494159 L160.776468,81.2294159 C160.791468,81.3774159 160.851468,81.4784159 161.024468,81.4624159 L161.019468,81.4574159 C160.996468,81.8334159 161.146468,82.1324159 161.432468,82.3684159 C161.379468,82.7844159 161.685468,83.1664159 161.618468,83.5474159 C161.453468,84.4804159 161.498468,85.4414159 161.148468,86.3474159 C160.849468,87.1254159 160.611468,87.9294159 160.379468,88.7324159 C160.075468,89.7874159 160.089468,89.7924159 161.217468,89.8204159 L161.328468,89.8204159 C163.041468,89.6234159 164.639468,91.9134159 164.167468,93.6614159 C163.922468,94.5714159 163.406468,95.2374159 162.699468,95.7804159 C161.974468,96.3374159 161.190468,96.8064159 160.362468,97.2024159 C159.940468,97.4074159 159.470468,97.5884159 159.150468,97.9084159 C158.744468,98.3204159 159.236468,98.8004159 159.244468,99.2634159 C159.268468,100.729416 159.443468,102.183416 159.703468,103.623416 C159.921468,104.832416 160.170468,106.044416 160.786468,107.136416 C160.779468,107.503416 161.062468,107.799416 161.024468,108.185416 C161.000468,108.423416 161.237468,108.435416 161.418468,108.456416 C161.510468,108.978416 161.798468,109.411416 162.099468,109.820416 C163.239468,111.366416 164.619468,112.691416 166.038468,113.975416 C166.176468,114.098416 166.325468,114.205416 166.522468,114.211416 C166.582468,114.458416 166.798468,114.416416 166.971468,114.454416 C166.968468,114.637416 167.049468,114.768416 167.211468,114.850416 L167.211468,114.850416 Z" id="Fill-152" fill="#EFA679" fill-rule="evenodd"></path>
                    <path d="M30.3614684,81.0244159 C30.3714684,80.8824159 30.3584684,80.7354159 30.4934684,80.6254159 C31.4544684,79.8484159 32.3914684,79.0404159 33.3134684,78.2114159 C34.5554684,77.0964159 35.8724684,76.0634159 37.1514684,74.9874159 C37.7654684,74.4734159 38.3544684,73.9224159 38.9504684,73.3914159 C40.2824684,72.1984159 41.6464684,71.0384159 43.0044684,69.8824159 C44.6034684,68.5164159 46.2194684,67.1614159 47.8384684,65.8154159 C49.3204684,64.5844159 50.8464684,63.4034159 52.2874684,62.1184159 C52.8294684,61.6354159 53.4174684,61.1984159 53.9284684,60.6754159 C54.2164684,60.3794159 54.5154684,60.3924159 54.7824684,60.6954159 C55.3384684,61.3234159 56.0564684,61.7964159 56.4854684,62.5514159 C56.6454684,62.8284159 56.9214684,63.0464159 57.1554684,63.2794159 C58.8484684,64.9584159 60.5844684,66.6054159 62.0804684,68.4634159 C62.9844684,69.5834159 64.0664684,70.5174159 65.0074684,71.5894159 C66.1084684,72.8454159 67.1094684,74.1924159 68.2424684,75.4164159 C69.1614684,76.4094159 69.9484684,77.5034159 70.8244684,78.5264159 C72.1924684,80.1224159 73.5784684,81.7124159 74.7794684,83.4434159 C75.2174684,84.0764159 75.7624684,84.6134159 76.2484684,85.1954159 C77.2284684,86.3644159 78.2244684,87.5164159 79.1214684,88.7534159 C79.5024684,89.2814159 80.0404684,89.6854159 80.3904684,90.2574159 C80.5424684,90.5084159 80.5335693,90.7354159 80.5335693,90.9874159 C79.9544684,90.9724159 79.7164684,91.4394159 79.4654684,91.8194159 C79.3224684,92.0344159 79.1934684,92.2794159 78.9844684,92.3994159 C77.9564684,92.9894159 77.2104684,93.9174159 76.3504684,94.6884159 C74.8254684,96.0554159 73.2274684,97.3584159 71.8514684,98.8904159 C71.7294684,99.0254159 71.6054684,99.1714159 71.4554684,99.2724159 C70.0604684,100.209416 68.9114684,101.440416 67.6124684,102.491416 C66.5994684,103.315416 65.5484684,104.092416 64.5574684,104.938416 C63.4774684,105.862416 62.2724684,106.633416 61.2954684,107.678416 C60.9944684,108.000416 60.7004684,108.349416 60.3394684,108.589416 C59.4844684,109.155416 58.6894684,109.784416 57.9954684,110.540416 C57.5124684,111.066416 56.9114684,111.376416 56.2254684,111.541416 C55.5474684,110.463416 54.6284684,109.574416 53.8594684,108.569416 C52.8674684,107.270416 51.7814684,106.052416 50.7124684,104.821416 C49.7284684,103.694416 48.6244684,102.667416 47.6774684,101.512416 C47.1894684,100.917416 46.6144684,100.403416 46.1664684,99.7884159 C45.0034684,98.2004159 43.5784684,96.8414159 42.3274684,95.3314159 C41.6074684,94.4614159 40.7564684,93.6954159 40.0644684,92.8074159 C38.7644684,91.1414159 37.2824684,89.6394159 35.8964684,88.0534159 C34.9394684,86.9554159 33.9664684,85.8614159 32.9634684,84.7974159 C32.1014684,83.8844159 31.2784684,82.9084159 30.5884684,81.8354159 C30.4114684,81.5634159 30.3534684,81.3194159 30.3614684,81.0244159 L30.3614684,81.0244159 Z" id="Fill-153" fill="#5382E0" fill-rule="evenodd"></path>
                    <path d="M247.493468,81.0814159 C247.585468,80.8654159 247.754468,80.7754159 247.887468,80.9964159 C248.964468,82.7954159 250.115468,84.5484159 251.220468,86.3314159 C252.439468,88.2984159 253.718468,90.2234159 254.949468,92.1814159 C256.738468,95.0274159 258.623468,97.8144159 260.313468,100.724416 C261.366468,102.536416 262.479468,104.313416 263.546468,106.118416 C263.987468,106.866416 264.347468,107.662416 264.799468,108.403416 C265.139468,108.959416 265.099468,109.378416 264.748468,109.953416 C263.579468,111.875416 262.213468,113.654416 260.946468,115.502416 C259.287468,117.926416 257.538468,120.276416 255.681468,122.554416 C254.379468,124.148416 253.249468,125.884416 251.992468,127.520416 C250.050468,130.047416 248.350468,132.749416 246.341468,135.232416 C245.842468,135.847416 245.230468,136.376416 244.837468,137.092416 C244.678468,137.382416 244.416468,137.718416 243.970468,137.681416 C243.234468,136.522416 242.484468,135.372416 241.765468,134.201416 C239.928468,131.219416 238.180468,128.179416 236.140468,125.326416 C234.708468,123.327416 233.294468,121.314416 232.064468,119.189416 C230.563468,116.593416 228.896468,114.101416 227.349468,111.535416 C226.796468,110.615416 226.069468,109.801416 225.830468,108.715416 C226.932468,107.011416 228.136468,105.392416 229.446468,103.835416 C230.818468,102.205416 231.952468,100.376416 233.306468,98.7334159 C234.943468,96.7444159 236.358468,94.5984159 237.873468,92.5284159 C239.154468,90.7754159 240.420468,89.0074159 241.819468,87.3524159 C242.898468,86.0754159 243.879468,84.7244159 244.960468,83.4494159 C246.147468,82.0464159 246.433468,81.6504159 247.493468,81.0814159 L247.493468,81.0814159 Z" id="Fill-154" fill="#5382E0" fill-rule="evenodd"></path>
                    <path d="M30.3614684,81.0244159 C30.3534684,81.3194159 30.4114684,81.5634159 30.5884684,81.8354159 C31.2784684,82.9084159 32.1014684,83.8844159 32.9634684,84.7974159 C33.9664684,85.8614159 34.9394684,86.9554159 35.8964684,88.0534159 C37.2824684,89.6394159 38.7644684,91.1414159 40.0644684,92.8074159 C40.7564684,93.6954159 41.6074684,94.4614159 42.3274684,95.3314159 C43.5784684,96.8414159 45.0034684,98.2004159 46.1664684,99.7884159 C46.6144684,100.403416 47.1894684,100.917416 47.6774684,101.512416 C48.6244684,102.667416 49.7284684,103.694416 50.7124684,104.821416 C51.7814684,106.052416 52.8674684,107.270416 53.8594684,108.569416 C54.6284684,109.574416 55.5474684,110.463416 56.2254684,111.541416 C56.2894684,111.993416 56.1524684,112.399416 55.9424684,112.791416 C55.1494684,114.282416 54.3184684,115.756416 53.5854684,117.277416 C52.5224684,119.485416 51.0794684,121.471416 49.9584684,123.647416 C49.2824684,124.953416 48.4804684,126.200416 47.7064684,127.457416 C46.7014684,129.088416 46.0204684,130.894416 44.9654684,132.496416 C44.7864684,132.769416 44.6724684,133.082416 44.7274684,133.425416 C44.4334684,133.528416 44.2774684,133.794416 44.0574684,133.984416 C43.5684684,134.403416 43.1914684,134.398416 42.7644684,133.903416 C40.8924684,131.731416 39.0814684,129.511416 37.4084684,127.177416 C36.5194684,125.940416 35.5184684,124.782416 34.5654684,123.592416 C33.2664684,121.972416 31.9374684,120.380416 30.5264684,118.853416 C29.3464684,117.575416 28.2644684,116.205416 27.2464684,114.789416 C27.0974684,114.582416 26.9164684,114.395416 26.7344684,114.216416 C25.3284684,112.830416 24.1344684,111.260416 22.9444684,109.700416 C22.1744684,108.688416 21.3534684,107.718416 20.5514684,106.738416 C19.6064684,105.584416 18.9244684,104.247416 17.9134684,103.143416 C17.6304684,102.832416 17.6974684,102.403416 17.8964684,102.018416 C19.8224684,98.2834159 22.0274684,94.7074159 24.2264684,91.1354159 C26.1844684,87.9564159 28.0314684,84.7234159 29.8204684,81.4514159 C29.9424684,81.2294159 30.0254684,80.9694159 30.3614684,81.0244159" id="Fill-155" fill="#20458F" fill-rule="evenodd"></path>
                    <path d="M225.830468,108.715416 C226.069468,109.801416 226.796468,110.615416 227.349468,111.535416 C228.896468,114.101416 230.563468,116.593416 232.064468,119.189416 C233.294468,121.314416 234.708468,123.327416 236.140468,125.326416 C238.180468,128.179416 239.928468,131.219416 241.765468,134.201416 C242.484468,135.372416 243.234468,136.522416 243.970468,137.681416 C243.949468,138.001416 243.996468,138.274416 243.497468,138.373416 C242.918468,138.487416 242.346468,138.505416 241.769468,138.567416 C239.100468,138.849416 236.408468,138.601416 233.751468,138.830416 C230.518468,139.107416 227.295468,138.914416 224.069468,138.992416 C222.721468,139.028416 221.402468,139.256416 220.070468,139.401416 C218.869468,139.533416 217.642468,139.442416 216.427468,139.437416 C216.073468,139.435416 215.987468,139.132416 215.823468,138.885416 C214.380468,136.710416 212.896468,134.561416 211.466468,132.375416 C209.063468,128.703416 206.633468,125.049416 204.324468,121.319416 C202.681468,118.663416 200.791468,116.178416 199.131468,113.538416 C198.916468,113.196416 198.665468,112.888416 198.634468,112.471416 C200.042468,112.047416 201.470468,111.752416 202.933468,111.561416 C203.962468,111.426416 204.987468,111.239416 206.017468,111.089416 C206.866468,110.963416 207.713468,110.798416 208.567468,110.715416 C209.249468,110.648416 209.951468,110.569416 210.598468,110.430416 C212.428468,110.034416 214.293468,109.941416 216.126468,109.600416 C216.872468,109.461416 217.640468,109.446416 218.378468,109.322416 C219.445468,109.143416 220.522468,109.097416 221.588468,108.941416 C222.013468,108.881416 222.439468,108.874416 222.871468,108.791416 C223.606468,108.653416 224.376468,108.662416 225.117468,108.493416 C225.401468,108.429416 225.591468,108.645416 225.830468,108.715416" id="Fill-156" fill="#092357" fill-rule="evenodd"></path>
                    <path d="M143.531468,49.2114159 C143.613468,49.9194159 143.362468,50.2644159 142.633468,50.5814159 C140.708468,51.4144159 138.893468,52.4974159 136.981468,53.3654159 C133.755468,54.8304159 130.563468,56.3644159 127.274468,57.6974159 C124.666468,58.7534159 121.999468,59.6604159 119.432468,60.8144159 C119.064468,60.9794159 118.765468,60.9354159 118.424468,60.6794159 C116.221468,59.0264159 113.985468,57.4164159 111.787468,55.7554159 C110.570468,54.8354159 109.425468,53.8184159 108.212468,52.8914159 C106.511468,51.5944159 104.781468,50.3344159 103.053468,49.0734159 C102.084468,48.3684159 101.114468,47.6724159 100.197468,46.8944159 C99.2604684,46.1004159 98.1844684,45.4724159 97.2194684,44.7094159 C96.5144684,44.1544159 95.6284684,43.8164159 95.1294684,43.0084159 C95.7664684,42.2974159 96.5634684,41.8604159 97.4814684,41.6134159 C97.6534684,41.5694159 97.8114684,41.4654159 97.9674684,41.3734159 C99.2794684,40.5964159 100.729468,40.1214159 102.121468,39.5384159 C104.516468,38.5384159 106.890468,37.5034159 109.233468,36.3894159 C111.846468,35.1474159 114.404468,33.7944159 117.035468,32.5834159 C118.494468,31.9114159 119.992468,31.3314159 121.436468,30.6314159 C121.714468,31.5394159 122.323468,32.1514159 123.098468,32.6844159 C123.992468,33.3024159 124.810468,34.0294159 125.643468,34.7324159 C127.033468,35.9034159 128.431468,37.0664159 129.843468,38.2064159 C131.653468,39.6684159 133.346468,41.2634159 135.166468,42.7104159 C136.162468,43.5024159 137.075468,44.4044159 138.109468,45.1394159 C139.419468,46.0714159 140.542468,47.2104159 141.771468,48.2314159 C142.312468,48.6784159 142.798468,49.1414159 143.531468,49.2114159" id="Fill-157" fill="#FFB713" fill-rule="evenodd"></path>
                    <path d="M225.830468,108.715416 C225.591468,108.645416 225.401468,108.429416 225.117468,108.493416 C224.376468,108.662416 223.606468,108.653416 222.871468,108.791416 C222.439468,108.874416 222.013468,108.881416 221.588468,108.941416 C220.522468,109.097416 219.445468,109.143416 218.378468,109.322416 C217.640468,109.446416 216.872468,109.461416 216.126468,109.600416 C214.293468,109.941416 212.428468,110.034416 210.598468,110.430416 C209.951468,110.569416 209.249468,110.648416 208.567468,110.715416 C207.713468,110.798416 206.866468,110.963416 206.017468,111.089416 C204.987468,111.239416 203.962468,111.426416 202.933468,111.561416 C201.470468,111.752416 200.042468,112.047416 198.634468,112.471416 C198.841468,111.420416 199.608468,110.696416 200.234468,109.926416 C201.312468,108.602416 202.240468,107.172416 203.280468,105.824416 C205.670468,102.726416 207.764468,99.4234159 210.005468,96.2214159 C211.500468,94.0864159 213.075468,91.9944159 214.781468,90.0104159 C215.987468,88.6074159 217.099468,87.1254159 218.257468,85.6814159 C218.590468,85.2674159 218.976468,85.0464159 219.566468,85.0364159 C220.350468,85.0224159 221.133468,84.8284159 221.913468,84.6954159 C222.661468,84.5664159 223.418468,84.5574159 224.171468,84.4264159 C225.666468,84.1644159 227.189468,84.0654159 228.702468,83.9114159 C230.840468,83.6974159 232.973468,83.3544159 235.092468,82.9134159 C236.563468,82.6094159 238.075468,82.4024159 239.563468,82.1474159 C241.264468,81.8544159 242.980468,81.6504159 244.680468,81.3624159 C245.591468,81.2084159 246.538468,80.9774159 247.493468,81.0814159 C246.433468,81.6504159 246.147468,82.0464159 244.960468,83.4494159 C243.879468,84.7244159 242.898468,86.0754159 241.819468,87.3524159 C240.420468,89.0074159 239.154468,90.7754159 237.873468,92.5284159 C236.358468,94.5984159 234.943468,96.7444159 233.306468,98.7334159 C231.952468,100.376416 230.818468,102.205416 229.446468,103.835416 C228.136468,105.392416 226.932468,107.011416 225.830468,108.715416" id="Fill-158" fill="#20458F" fill-rule="evenodd"></path>
                    <path d="M121.436468,30.6314159 C119.992468,31.3314159 118.494468,31.9114159 117.035468,32.5834159 C114.404468,33.7944159 111.846468,35.1474159 109.233468,36.3894159 C106.890468,37.5034159 104.516468,38.5384159 102.121468,39.5384159 C100.729468,40.1214159 99.2794684,40.5964159 97.9674684,41.3734159 C97.8114684,41.4654159 97.6534684,41.5694159 97.4814684,41.6134159 C96.5634684,41.8604159 95.7664684,42.2974159 95.1294684,43.0084159 C95.0754684,42.4904159 95.2044684,42.0024159 95.3564684,41.5144159 C96.1624684,38.9084159 96.7754684,36.2554159 97.3644684,33.5934159 C97.7654684,31.7764159 98.2764684,29.9794159 98.7964684,28.1914159 C99.5544684,25.5724159 100.218468,22.9324159 100.881468,20.2894159 C101.387468,18.2724159 101.910468,16.2614159 102.445468,14.2514159 C102.538468,13.9034159 102.775468,13.6524159 103.126468,13.4614159 C105.290468,12.2894159 107.456468,11.1184159 109.587468,9.8884159 C111.565468,8.7454159 113.613468,7.7414159 115.622468,6.6614159 C118.017468,5.3764159 120.402468,4.0764159 122.823468,2.8394159 C123.725468,2.3764159 124.562468,1.8044159 125.356468,1.1744159 C125.513468,1.0504159 125.671468,1.0004159 125.859468,0.997415903 C125.856468,1.8084159 125.960468,2.6344159 125.821468,3.4194159 C125.665468,4.3064159 125.608468,5.2074159 125.400468,6.0764159 C125.140468,7.1584159 125.055468,8.2654159 124.795468,9.3494159 C124.335468,11.2654159 124.036468,13.2174159 123.643468,15.1494159 C123.370468,16.4874159 123.194468,17.8424159 122.935468,19.1784159 C122.540468,21.2204159 122.150468,23.2604159 121.842468,25.3194159 C121.738468,26.0184159 121.608468,26.7464159 121.529468,27.4414159 C121.413468,28.4854159 120.880468,29.5594159 121.436468,30.6314159" id="Fill-159" fill="#FFC928" fill-rule="evenodd"></path>
                    <path d="M121.436468,30.6314159 C120.880468,29.5594159 121.413468,28.4854159 121.529468,27.4414159 C121.608468,26.7464159 121.738468,26.0184159 121.842468,25.3194159 C122.150468,23.2604159 122.540468,21.2204159 122.935468,19.1784159 C123.194468,17.8424159 123.370468,16.4874159 123.643468,15.1494159 C124.036468,13.2174159 124.335468,11.2654159 124.795468,9.3494159 C125.055468,8.2654159 125.140468,7.1584159 125.400468,6.0764159 C125.608468,5.2074159 125.665468,4.3064159 125.821468,3.4194159 C125.960468,2.6344159 125.856468,1.8084159 125.859468,0.997415903 C125.906468,0.823415903 126.054468,0.737415903 126.181468,0.827415903 C126.417468,0.997415903 126.664468,1.1914159 126.820468,1.4304159 C127.487468,2.4574159 128.457468,3.1754159 129.365468,3.9534159 C130.052468,4.5434159 130.767468,5.1004159 131.469468,5.6714159 C131.583468,5.7654159 131.704468,5.8524159 131.801468,5.9604159 C133.100468,7.4124159 134.679468,8.5644159 136.033468,9.9604159 C137.871468,11.8574159 139.829468,13.6344159 141.772468,15.4154159 C143.884468,17.3544159 145.836468,19.4464159 147.918468,21.4054159 C148.282468,21.7494159 148.477468,22.0254159 148.253468,22.6274159 C148.039468,23.2054159 148.090468,23.9014159 147.984468,24.5464159 C147.763468,25.8924159 147.522468,27.2394159 147.353468,28.5904159 C147.204468,29.7694159 146.931468,30.9284159 146.834468,32.1204159 C146.739468,33.2954159 146.411468,34.4474159 146.249468,35.6204159 C146.160468,36.2624159 146.102468,36.9054159 145.985468,37.5494159 C145.767468,38.7484159 145.547468,39.9504159 145.371468,41.1544159 C145.130468,42.8284159 144.721468,44.4654159 144.441468,46.1284159 C144.259468,47.1974159 143.838468,48.1834159 143.531468,49.2114159 C142.798468,49.1414159 142.312468,48.6784159 141.771468,48.2314159 C140.542468,47.2104159 139.419468,46.0714159 138.109468,45.1394159 C137.075468,44.4044159 136.162468,43.5024159 135.166468,42.7104159 C133.346468,41.2634159 131.653468,39.6684159 129.843468,38.2064159 C128.431468,37.0664159 127.033468,35.9034159 125.643468,34.7324159 C124.810468,34.0294159 123.992468,33.3024159 123.098468,32.6844159 C122.323468,32.1514159 121.714468,31.5394159 121.436468,30.6314159 L121.436468,30.6314159 Z" id="Fill-160" fill="#FFD26E" fill-rule="evenodd"></path>
                    <path d="M142,15 C136,23 132.166667,28.3333333 130.5,31 L127.5,27.5 L126.5,29 L130,35.5 C130.049588,35.3795716 131.449365,35.1215239 131.5,35 C133.166667,31 137,24.6666667 143,16 L142,15 Z" id="Path-2" fill="#FFFFFF" fill-rule="nonzero" transform="translate(134.750000, 25.250000) scale(-1, 1) rotate(-15.000000) translate(-134.750000, -25.250000) "></path>
                    <path d="M63.2914684,142.419416 C64.4074684,142.434416 64.7084684,142.517416 65.7644684,143.120416 C65.8594684,143.173416 65.9504684,143.234416 66.0454684,143.287416 C66.1434684,143.341416 66.2444684,143.372416 66.3354684,143.275416 C66.4544684,143.147416 66.4234684,143.007416 66.3504684,142.875416 L66.2054684,142.714416 C65.2244684,141.831416 62.5924684,141.509416 61.4194684,142.135416 C61.2624684,142.217416 61.0824684,142.342416 61.1874684,142.556416 C61.2544684,142.692416 61.4354684,142.735416 61.5734684,142.675416 C62.1244684,142.432416 62.7064684,142.420416 63.2914684,142.419416 Z M94.9134684,163.705416 C95.2714684,163.831416 95.3874684,164.174416 95.4824684,164.468416 C95.8544684,165.612416 96.1884684,166.773416 95.8754684,167.998416 C95.7214684,168.605416 95.8344684,169.231416 95.7034684,169.851416 C95.1774684,172.320416 93.6444684,173.963416 91.5154684,175.166416 C90.2794684,175.865416 88.9064684,176.029416 87.5554684,176.295416 C86.7244684,176.460416 85.9944684,176.037416 85.2184684,175.883416 C84.2314684,175.263416 83.6394684,174.258416 82.9104684,173.406416 C81.1084684,171.305416 79.5614684,169.001416 78.0984684,166.654416 C76.6944684,164.401416 75.2524684,162.171416 73.9484684,159.855416 C73.0534684,158.266416 72.3074684,156.603416 71.4384684,155.004416 C70.2374684,152.797416 69.0934684,150.557416 67.9734684,148.307416 C67.3144684,146.984416 66.1964684,146.373416 64.8444684,146.015416 C63.8664684,145.758416 62.8984684,145.981416 61.9464684,146.077416 C60.9064684,146.182416 59.8494684,146.294416 58.8294684,146.504416 C57.8984684,146.696416 56.9494684,146.576416 56.0224684,146.854416 C55.4454684,147.026416 54.7794684,146.903416 54.1534684,146.902416 C53.8644684,146.902416 53.6624684,146.746416 53.5914684,146.470416 C53.5134684,146.168416 53.7094684,145.988416 53.9244684,145.832416 C54.5814684,145.353416 55.3434684,145.095416 56.1194684,144.945416 C56.5114684,144.868416 56.8644684,144.621416 57.2864684,144.683416 L57.4664684,144.582416 L57.2974684,144.488416 C56.6034684,144.483416 55.9204684,144.351416 55.2364684,144.296416 C54.5784684,144.243416 53.9514684,144.022416 53.2934684,144.030416 C53.0414684,144.034416 52.8944684,143.879416 52.7284684,143.736416 C52.4514684,143.495416 52.4184684,143.272416 52.7024684,143.003416 C53.0054684,142.714416 53.3644684,142.586416 53.7624684,142.477416 C54.6974684,142.224416 55.6494684,142.292416 56.5964684,142.258416 C56.7364684,142.253416 56.8744684,142.202416 57.0134684,142.172416 C56.9014684,141.973416 56.7084684,142.063416 56.5494684,142.049416 C54.8164684,141.905416 53.0704684,141.847416 51.4234684,141.186416 L51.2054684,141.151416 C50.9294684,141.090416 50.7344684,140.935416 50.7104684,140.640416 C50.6764684,140.224416 51.0994684,140.121416 51.3004684,140.121416 C52.0744684,140.115416 52.8024684,139.826416 53.5704684,139.829416 C54.4544684,139.831416 55.3384684,139.829416 56.2234684,139.820416 C56.3374684,139.820416 56.5044684,139.901416 56.5384684,139.701416 C56.5404684,139.690416 56.3514684,139.643416 56.2494684,139.616416 C55.3034684,139.385416 54.3534684,139.163416 53.4574684,138.764416 C53.1244684,138.615416 52.7794684,138.495416 52.5104684,138.230416 C52.1474684,137.874416 52.1894684,137.585416 52.6644684,137.409416 C53.5484684,137.082416 54.5094684,137.049416 55.3734684,137.239416 C56.2704684,137.440416 57.1724684,137.372416 58.0714684,137.577416 C60.2204684,138.064416 62.3534684,138.602416 64.4734684,139.195416 C64.6124684,139.235416 64.7334684,139.333416 64.8714684,139.372416 C65.0124684,139.410416 65.1844684,139.403416 65.2504684,139.253416 L65.1784684,138.953416 C64.7694684,138.393416 64.3704684,137.821416 63.7874684,137.415416 C62.8444684,136.759416 62.1314684,135.858416 61.3114684,135.070416 C61.2334684,134.993416 61.1384684,134.905416 61.1154684,134.808416 C61.0564684,134.556416 60.7114684,134.341416 61.0434684,134.025416 C61.3224684,133.759416 61.5064684,133.997416 61.7284684,134.079416 C62.4934684,134.361416 63.1444684,134.846416 63.7524684,135.356416 C65.3204684,136.674416 66.7454684,138.128416 68.0354684,139.737416 C69.2904684,141.302416 70.5884684,142.834416 71.7794684,144.449416 C72.7964684,145.826416 73.7534684,147.246416 74.7824684,148.613416 C75.3954684,149.428416 76.0594684,150.212416 76.7654684,150.948416 C78.1144684,152.361416 79.5094684,153.727416 80.8844684,155.113416 C81.6784684,155.913416 82.4024684,156.774416 83.2504684,157.535416 C84.4294684,158.595416 85.7004684,159.496416 87.0354684,160.318416 C88.9284684,161.482416 90.9564684,162.343416 93.1024684,162.944416 C93.4944684,163.053416 93.8924684,162.979416 94.2804684,163.154416 C94.5714684,163.283416 94.6484684,163.589416 94.9134684,163.705416 L94.9134684,163.705416 Z" id="Fill-161" fill="#EFA679" fill-rule="evenodd"></path>
                    <path d="M237.710468,166.807416 C237.682468,166.734416 237.720468,166.562416 237.548468,166.696416 L237.720468,166.798416 C237.734468,166.929416 237.806468,167.003416 237.937468,167.022416 L238.026468,167.182416 L238.106468,167.088416 L237.933468,167.025416 C237.933468,166.877416 237.853468,166.810416 237.710468,166.807416 Z M214.118468,185.109416 C214.076468,184.940416 214.081468,184.672416 213.831468,184.735416 C212.187468,185.124416 211.348468,183.989416 210.526468,182.938416 C209.567468,181.712416 209.161468,180.200416 208.812468,178.728416 C208.301468,176.570416 208.442468,174.372416 209.044468,172.237416 C209.362468,171.108416 209.881468,170.058416 210.792468,169.253416 C210.978468,169.089416 211.210468,168.939416 211.200468,168.637416 C211.496468,168.614416 211.697468,168.340416 212.014468,168.353416 C214.682468,168.451416 216.881468,167.229416 219.068468,165.906416 C221.549468,164.406416 223.856468,162.654416 226.291468,161.086416 C226.596468,160.891416 226.874468,160.656416 227.245468,160.598416 C227.821468,160.732416 228.313468,160.264416 228.946468,160.459416 C229.928468,160.757416 230.704468,161.291416 231.382468,162.020416 C231.531468,162.180416 231.681468,162.339416 231.843468,162.484416 L232.040468,162.496416 L232.167468,162.224416 C232.108468,162.058416 232.004468,161.904416 231.891468,161.765416 C231.031468,160.719416 229.934468,160.062416 228.599468,159.811416 C229.019468,159.325416 229.621468,159.318416 230.171468,159.304416 C231.750468,159.263416 233.338468,159.197416 234.910468,159.315416 C236.653468,159.443416 238.307468,159.995416 239.822468,160.899416 C240.008468,161.009416 240.167468,161.175416 240.317468,161.335416 C240.579468,161.617416 241.008468,161.853416 240.721468,162.343416 C240.531468,162.666416 239.950468,162.801416 239.458468,162.697416 C238.431468,162.483416 237.448468,162.129416 236.473468,161.748416 C236.347468,161.697416 236.150468,161.641416 236.063468,161.779416 C235.966468,161.931416 236.150468,162.017416 236.253468,162.089416 C237.600468,163.032416 238.838468,164.104416 240.038468,165.227416 C240.673468,165.821416 241.389468,166.322416 241.878468,167.073416 C242.098468,167.412416 242.265468,167.772416 242.459468,168.118416 C242.680468,168.514416 242.412468,168.696416 242.132468,168.766416 C241.780468,168.852416 241.428468,168.772416 241.077468,168.596416 C240.328468,168.223416 239.589468,167.837416 238.879468,167.397416 C238.726468,167.301416 238.553468,167.154416 238.411468,167.367416 C238.304468,167.527416 238.353468,167.732416 238.485468,167.871416 C239.091468,168.518416 239.512468,169.280416 239.910468,170.060416 C240.007468,170.252416 240.104468,170.459416 240.130468,170.668416 C240.171468,171.019416 239.821468,171.234416 239.482468,171.118416 C239.116468,170.993416 238.878468,170.717416 238.609468,170.470416 C237.855468,169.777416 237.233468,168.947416 236.396468,168.339416 L236.306468,168.184416 L236.221468,168.275416 L236.377468,168.360416 C236.349468,168.660416 236.442468,168.904416 236.621468,169.161416 C237.098468,169.844416 237.298468,170.647416 237.488468,171.445416 C237.535468,171.644416 237.567468,171.917416 237.357468,172.045416 C237.103468,172.200416 236.891468,172.034416 236.680468,171.866416 C236.383468,171.626416 236.222468,171.179416 235.736468,171.213416 C235.736468,171.074416 235.753468,170.930416 235.607468,170.848416 L235.531468,170.915416 C235.492468,171.076416 235.554468,171.186416 235.716468,171.230416 C235.648468,171.547416 235.978468,171.757416 235.942468,172.063416 C235.913468,172.298416 236.074468,172.604416 235.746468,172.738416 C235.454468,172.857416 235.260468,172.654416 235.078468,172.468416 C234.511468,171.889416 233.890468,171.352416 233.397468,170.716416 C232.236468,169.215416 231.064468,167.725416 229.845468,166.273416 C229.601468,165.982416 229.494468,166.018416 229.161468,166.085416 C228.047468,166.310416 227.433468,167.071416 226.873468,167.944416 C225.455468,170.149416 224.263468,172.484416 222.991468,174.774416 C222.318468,175.986416 221.480468,177.088416 220.664468,178.203416 C219.316468,180.047416 217.721468,181.667416 216.067468,183.232416 C215.564468,183.708416 215.015468,184.138416 214.503468,184.605416 C214.349468,184.744416 214.245468,184.939416 214.118468,185.109416 L214.118468,185.109416 Z" id="Fill-162" fill="#EFA679" fill-rule="evenodd"></path>
                    <path d="M44.7274684,133.425416 C44.6724684,133.082416 44.7864684,132.769416 44.9654684,132.496416 C46.0204684,130.894416 46.7014684,129.088416 47.7064684,127.457416 C48.4804684,126.200416 49.2824684,124.953416 49.9584684,123.647416 C51.0794684,121.471416 52.5224684,119.485416 53.5854684,117.277416 C54.3184684,115.756416 55.1494684,114.282416 55.9424684,112.791416 C56.1524684,112.399416 56.2894684,111.993416 56.2254684,111.541416 C56.9114684,111.376416 57.5124684,111.066416 57.9954684,110.540416 C58.6894684,109.784416 59.4844684,109.155416 60.3394684,108.589416 C60.7004684,108.349416 60.9944684,108.000416 61.2954684,107.678416 C62.2724684,106.633416 63.4774684,105.862416 64.5574684,104.938416 C65.5484684,104.092416 66.5994684,103.315416 67.6124684,102.491416 C68.9114684,101.440416 70.0604684,100.209416 71.4554684,99.2724159 C71.6054684,99.1714159 71.7294684,99.0254159 71.8514684,98.8904159 C73.2274684,97.3584159 74.8254684,96.0554159 76.3504684,94.6884159 C77.2104684,93.9174159 77.9564684,92.9894159 78.9844684,92.3994159 C79.1934684,92.2794159 79.3224684,92.0344159 79.4654684,91.8194159 C79.7164684,91.4394159 79.9544684,90.9724159 80.5334684,90.9870636 C80.0634684,91.9304159 79.5474684,92.8514159 79.1334684,93.8174159 C78.2264684,95.9294159 76.8324684,97.7604159 75.7654684,99.7824159 C75.2254684,100.810416 74.6664684,101.831416 74.1614684,102.874416 C73.2394684,104.774416 72.0644684,106.522416 71.0274684,108.348416 C69.4874684,111.060416 67.6604684,113.594416 66.1774684,116.340416 C65.7154684,117.195416 65.0924684,117.913416 64.3664684,118.596416 C62.9784684,119.901416 61.5354684,121.139416 60.0694684,122.344416 C58.7284684,123.444416 57.2134684,124.330416 55.8074684,125.354416 C53.4884684,127.042416 51.1844684,128.748416 48.8984684,130.480416 C47.5394684,131.510416 46.2504684,132.631416 44.7274684,133.425416" id="Fill-163" fill="#092357" fill-rule="evenodd"></path>
                    <path d="M159.066468,79.8534159 C156.729468,78.1444159 154.104468,77.2974159 151.220468,77.2674159 C149.653468,77.2524159 148.195468,77.6474159 146.904468,78.5704159 C146.401468,78.1404159 145.973468,77.6504159 145.642468,77.0704159 C144.782468,75.5554159 144.815468,74.0794159 145.484468,72.4564159 C147.044468,68.6794159 150.575468,68.4624159 153.443468,69.7764159 C155.452468,70.6954159 157.089468,72.0904159 158.392468,73.8674159 C158.833468,74.4684159 159.353468,74.8454159 160.070468,75.1374159 C162.213468,76.0104159 164.229468,77.1714159 165.976468,78.6934159 C167.859468,80.3364159 169.045468,82.5024159 169.998468,84.7874159 C170.887468,87.1114159 170.883468,88.3244159 170.887468,88.6494159 C170.903468,90.5004159 170.501468,92.2684159 169.752468,93.9524159 C169.338468,94.8844159 168.855468,95.7854159 168.403468,96.6984159 C168.160468,97.0614159 167.881468,97.3714159 167.542468,97.6604159 C165.581468,99.3324159 163.865468,101.217416 162.627468,103.501416 C162.404468,103.912416 162.265468,104.372416 161.923468,104.715416 L161.828468,104.624416 C161.862468,103.753416 162.298468,103.018416 162.643468,102.256416 C163.415468,100.551416 164.561468,99.0624159 165.475468,97.4384159 C166.796468,95.0924159 167.578468,92.6444159 167.231468,89.9044159 C166.728468,85.9254159 159.329468,80.0444159 159.066468,79.8534159" id="Fill-164" fill="#20458F" fill-rule="evenodd"></path>
                    <path d="M175.696468,118.578416 C175.067468,118.438416 174.423468,118.340416 173.811468,118.147416 C172.886468,117.852416 171.972468,117.510416 171.113468,117.043416 C171.355468,116.808416 171.672468,116.725416 171.974468,116.601416 C173.128468,116.132416 174.054468,115.369416 174.775468,114.360416 C176.060468,112.565416 176.721468,110.583416 176.463468,108.361416 C176.117468,105.374416 174.769468,103.019416 172.095468,101.500416 C170.171468,100.409416 168.122468,100.038416 165.942468,100.338416 L165.765468,100.147416 C166.624468,99.0554159 167.525468,98.0174159 168.955468,97.6554159 C169.174468,97.6404159 169.397468,97.6454159 169.613468,97.6074159 C172.257468,97.1474159 174.590468,97.9374159 176.791468,99.3324159 C179.428468,101.004416 181.335468,103.264416 182.277468,106.250416 C183.042468,108.670416 183.286468,111.141416 182.291468,113.566416 C181.083468,116.513416 178.978468,118.334416 175.696468,118.578416" id="Fill-165" fill="#20458F" fill-rule="evenodd"></path>
                    <path d="M165.942468,100.338416 C168.122468,100.038416 170.171468,100.409416 172.095468,101.500416 C174.769468,103.019416 176.117468,105.374416 176.463468,108.361416 C176.721468,110.583416 176.060468,112.565416 174.775468,114.360416 C174.054468,115.369416 173.128468,116.132416 171.974468,116.601416 C171.672468,116.725416 171.355468,116.808416 171.113468,117.043416 C170.818468,117.056416 170.662468,116.917416 170.656468,116.618416 C170.858468,116.533416 171.055468,116.438416 171.261468,116.366416 C174.495468,115.252416 176.105468,111.763416 175.992468,109.095416 C175.822468,105.070416 173.682468,102.114416 169.483468,100.984416 C168.378468,100.685416 167.239468,100.597416 166.104468,100.904416 C165.896468,100.957416 165.589468,100.915416 165.545468,101.163416 C165.491468,101.476416 165.845468,101.363416 166.003468,101.443416 C167.296468,102.094416 168.507468,102.818416 169.257468,104.138416 C170.542468,106.399416 170.850468,108.775416 170.045468,111.237416 C169.546468,112.762416 168.567468,113.928416 166.971468,114.454416 C166.798468,114.416416 166.582468,114.458416 166.522468,114.211416 C166.604468,114.142416 166.675468,114.041416 166.769468,114.008416 C168.193468,113.511416 169.103468,112.480416 169.552468,111.098416 C170.186468,109.148416 170.035468,107.186416 169.282468,105.286416 C168.503468,103.320416 166.932468,102.260416 164.992468,101.654416 C164.691468,101.561416 164.453468,101.581416 164.243468,101.900416 C163.275468,103.369416 162.383468,104.864416 161.826468,106.559416 C161.619468,107.190416 161.828468,107.887416 161.418468,108.456416 C161.237468,108.435416 161.000468,108.423416 161.024468,108.185416 C161.062468,107.799416 160.779468,107.503416 160.786341,107.136416 C160.900468,105.168416 161.526468,103.355416 162.402468,101.606416 C163.222468,99.9654159 164.317468,98.4924159 165.203468,96.8914159 C166.622468,94.3274159 167.222468,91.6274159 166.513468,88.7554159 C165.803468,85.8804159 164.074468,83.7424159 161.432468,82.3684159 C161.146468,82.1324159 160.996468,81.8334159 161.019468,81.4574159 C164.438468,83.2824159 166.728468,85.9254159 167.231468,89.9044159 C167.578468,92.6444159 166.796468,95.0924159 165.475468,97.4384159 C164.561468,99.0624159 163.415468,100.551416 162.643468,102.256416 C162.298468,103.018416 161.862468,103.753416 161.828468,104.624416 C161.672468,104.740416 161.592468,104.983416 161.733468,105.035416 C161.943468,105.112416 161.869468,104.835416 161.923468,104.715416 C162.265468,104.372416 162.404468,103.912416 162.627468,103.501416 C163.865468,101.217416 165.581468,99.3324159 167.542468,97.6604159 C167.881468,97.3714159 168.160468,97.0614159 168.403468,96.6984159 C169.024468,96.8024159 169.443468,96.2594159 170.022468,96.1914159 C170.184468,96.1734159 170.348468,96.0414159 170.533468,96.0884159 L170.677468,96.2234159 L170.635468,96.4104159 C170.250468,96.5964159 169.918468,96.8914159 169.471468,96.9494159 C169.067468,97.0044159 168.948468,97.2904159 168.955468,97.6554159 C167.525468,98.0174159 166.624468,99.0554159 165.765468,100.147416 C165.674468,100.232416 165.584468,100.316416 165.493468,100.403416 C165.666468,100.542416 165.804468,100.447416 165.942468,100.338416" id="Fill-166" fill="#D4D0CF" fill-rule="evenodd"></path>
                    <path d="M228.599468,159.811416 C229.934468,160.062416 231.031468,160.719416 231.891468,161.765416 C232.004468,161.904416 232.108468,162.058416 232.167468,162.224416 L232.040468,162.496416 L231.843468,162.484416 C231.681468,162.339416 231.531468,162.180416 231.382468,162.020416 C230.704468,161.291416 229.928468,160.757416 228.946468,160.459416 C228.313468,160.264416 227.821468,160.732416 227.245468,160.598416 C227.417468,159.856416 228.026468,159.862416 228.599468,159.811416" id="Fill-169" fill="#171634" fill-rule="evenodd"></path>
                    <path d="M166.971468,114.454416 C168.567468,113.928416 169.546468,112.762416 170.045468,111.237416 C170.850468,108.775416 170.542468,106.399416 169.257468,104.138416 C168.507468,102.818416 167.296468,102.094416 166.003468,101.443416 C165.845468,101.363416 165.491468,101.476416 165.545468,101.163416 C165.589468,100.915416 165.896468,100.957416 166.104468,100.904416 C167.239468,100.597416 168.378468,100.685416 169.483468,100.984416 C173.682468,102.114416 175.822468,105.070416 175.992468,109.095416 C176.105468,111.763416 174.495468,115.252416 171.261468,116.366416 C171.055468,116.438416 170.858468,116.533416 170.656468,116.618416 C170.043468,116.637416 169.606468,116.232416 169.103468,115.981416 C168.443468,115.652416 167.924468,115.088416 167.211468,114.850416 C167.049468,114.768416 166.968468,114.637416 166.971468,114.454416" id="Fill-171" fill="#20458F" fill-rule="evenodd"></path>
                    <path d="M161.432468,82.3684159 C164.074468,83.7424159 165.803468,85.8804159 166.513468,88.7554159 C167.222468,91.6274159 166.622468,94.3274159 165.203468,96.8914159 C164.317468,98.4924159 163.222468,99.9654159 162.402468,101.606416 C161.526468,103.355416 160.900468,105.168416 160.786468,107.136416 C160.170468,106.044416 159.921468,104.832416 159.703468,103.623416 C159.443468,102.183416 159.268468,100.729416 159.244468,99.2634159 C159.236468,98.8004159 158.744468,98.3204159 159.150468,97.9084159 C159.470468,97.5884159 159.940468,97.4074159 160.362468,97.2024159 C161.190468,96.8064159 161.974468,96.3374159 162.699468,95.7804159 C163.406468,95.2374159 163.922468,94.5714159 164.167468,93.6614159 C164.639468,91.9134159 163.041468,89.6234159 161.328468,89.8204159 L161.217468,89.8204159 C160.089468,89.7924159 160.075468,89.7874159 160.379468,88.7324159 C160.611468,87.9294159 160.849468,87.1254159 161.148468,86.3474159 C161.498468,85.4414159 161.453468,84.4804159 161.618468,83.5474159 C161.685468,83.1664159 161.379468,82.7844159 161.432468,82.3684159" id="Fill-172" fill="#20458F" fill-rule="evenodd"></path>
                    <path d="M161.418468,108.456416 C161.828468,107.887416 161.619468,107.190416 161.826468,106.559416 C162.383468,104.864416 163.275468,103.369416 164.243468,101.900416 C164.453468,101.581416 164.691468,101.561416 164.992468,101.654416 C166.932468,102.260416 168.503468,103.320416 169.282468,105.286416 C170.035468,107.186416 170.186468,109.148416 169.552468,111.098416 C169.103468,112.480416 168.193468,113.511416 166.769468,114.008416 C166.675468,114.041416 166.604468,114.142416 166.522468,114.211416 C166.325468,114.205416 166.176468,114.098416 166.038468,113.975416 C164.619468,112.691416 163.239468,111.366416 162.099468,109.820416 C161.798468,109.411416 161.510468,108.978416 161.418468,108.456416" id="Fill-173" fill="#20458F" fill-rule="evenodd"></path>
                    <path d="M149.543468,91.2094159 C149.202468,92.0664159 149.091468,92.9994159 148.451468,93.7054159 C147.402468,94.8684159 146.192468,94.7434159 145.400468,93.4084159 C145.030468,92.7854159 144.800468,92.0714159 144.246468,91.5604159 L144.120468,91.2914159 C144.222468,91.1684159 144.399468,91.1624159 144.522468,91.2424159 C144.987468,91.5464159 145.495468,91.7734159 146.035468,91.8454159 C147.154468,91.9904159 148.248468,91.9614159 149.036468,90.9524159 C149.134468,90.8284159 149.293468,90.7314159 149.409468,90.8134159 C149.501468,90.8764159 149.501468,91.0694159 149.543468,91.2094159" id="Fill-174" fill="#171634" fill-rule="evenodd"></path>
                    <path d="M158.583467,95.3054159 C158.584468,94.7384159 158.967468,94.3144159 159.492468,94.3004159 C160.111468,94.2814159 160.740468,94.8294159 160.760468,95.4044159 C160.779468,95.9744159 160.132468,96.6894159 159.624468,96.6544159 C159.104468,96.6184159 158.582468,95.9424159 158.583467,95.3054159" id="Fill-175" fill="#20458F" fill-rule="evenodd"></path>
                    <path d="M147.713468,81.9644159 L147.819468,81.9824159 C147.927468,82.0514159 147.948468,82.1694159 147.894468,82.2654159 C147.679468,82.6484159 147.474468,83.0414159 147.219468,83.3974159 C146.662468,84.1694159 146.100468,84.9434159 145.496468,85.6794159 C145.113468,86.1474159 144.821468,86.5594159 145.383468,87.0824159 C145.459468,87.1544159 145.474468,87.2924159 145.358468,87.3704159 C145.258468,87.4364159 145.144468,87.4184159 145.068468,87.3284159 C144.879468,87.1044159 144.692468,86.8764159 144.519468,86.6404159 C144.402468,86.4764159 144.398468,86.2874159 144.532468,86.1304159 C145.631468,84.8474159 146.656468,83.5084159 147.534468,82.0624159 L147.713468,81.9644159" id="Fill-176" fill="#171634" fill-rule="evenodd"></path>
                    <path d="M160.633468,91.6324159 C161.420468,91.6214159 161.910468,91.9244159 162.086468,92.4774159 C162.274468,93.0744159 161.977468,93.8394159 161.423468,94.1964159 C161.320468,94.2654159 161.202468,94.2774159 161.130468,94.2014159 L161.048468,93.9154159 C161.121468,93.7544159 161.266468,93.6274159 161.354468,93.4704159 C161.751468,92.7574159 161.556468,92.3204159 160.754468,92.1124159 C160.613468,92.0754159 160.462468,92.0874159 160.323468,92.0474159 L160.208468,91.8894159 C160.173468,91.7524159 160.279468,91.6934159 160.383468,91.6644159 C160.486468,91.6344159 160.599468,91.6364159 160.633468,91.6324159" id="Fill-177" fill="#171634" fill-rule="evenodd"></path>
                    <path d="M151.884468,83.4274159 C151.916468,83.7904159 151.359468,84.5064159 151.005468,84.5554159 L150.899468,84.5544159 C150.565468,84.4694159 150.438468,84.2264159 150.464468,83.9094159 C150.502468,83.4474159 150.972468,82.8774159 151.286468,82.8774159 C151.506468,82.8784159 151.866468,83.2084159 151.884468,83.4274159" id="Fill-178" fill="#171634" fill-rule="evenodd"></path>
                    <path d="M145.515468,83.3924159 L145.414468,83.3694159 C145.267468,83.2634159 145.128468,83.1544159 145.108468,82.9454159 C145.073468,82.5844159 145.340468,82.0994159 145.677468,81.9734159 C145.854468,81.9054159 146.034468,81.9194159 146.176468,82.0694159 L146.304468,82.2424159 C146.427468,82.5944159 145.878468,83.3874159 145.515468,83.3924159" id="Fill-179" fill="#171634" fill-rule="evenodd"></path>
                    <polyline id="Fill-180" fill="#171634" fill-rule="evenodd" points="160.433468 80.9224159 160.492468 80.9204159 160.445468 80.9784159 160.433468 80.9224159"></polyline>
                    <path d="M160.776468,81.2294159 C160.911468,81.2524159 161.025468,81.2984159 161.024468,81.4624159 C160.851468,81.4784159 160.791468,81.3774159 160.776468,81.2294159" id="Fill-181" fill="#D4D0CF" fill-rule="evenodd"></path>
                    <path d="M63.2914684,142.419416 C62.7064684,142.420416 62.1244684,142.432416 61.5734684,142.675416 C61.4354684,142.735416 61.2544684,142.692416 61.1874684,142.556416 C61.0824684,142.342416 61.2624684,142.217416 61.4194684,142.135416 C62.5924684,141.509416 65.2244684,141.831416 66.2054684,142.714416 L66.3504684,142.875416 C66.4234684,143.007416 66.4544684,143.147416 66.3354684,143.275416 C66.2444684,143.372416 66.1434684,143.341416 66.0454684,143.287416 C65.9504684,143.234416 65.8594684,143.173416 65.7644684,143.120416 C64.7084684,142.517416 64.4074684,142.434416 63.2914684,142.419416" id="Fill-190" fill="#171634" fill-rule="evenodd"></path>
                    <path d="M165.942468,100.338416 C165.804468,100.447416 165.666468,100.542416 165.493468,100.403416 C165.584468,100.316416 165.674468,100.232416 165.765468,100.147416 L165.942468,100.338416" id="Fill-191" fill="#171634" fill-rule="evenodd"></path>
                    <path d="M161.923468,104.715416 C161.869468,104.835416 161.943468,105.112416 161.733468,105.035416 C161.592468,104.983416 161.672468,104.740416 161.828468,104.624416 L161.923468,104.715416" id="Fill-192" fill="#171634" fill-rule="evenodd"></path>
                </g>
            </g>
        </g>
    </g>
</svg>