<?xml version="1.0" encoding="UTF-8"?>
<svg width="96px" height="96px" viewBox="0 0 96 96" version="1.1" xmlns="http://www.w3.org/2000/svg" xmlns:xlink="http://www.w3.org/1999/xlink">
    <!-- Generator: Sketch 59.1 (86144) - https://sketch.com -->
    <title>tirelire-euros</title>
    <desc>Created with Sketch.</desc>
    <g id="tirelire-euros" stroke="none" stroke-width="1" fill="none" fill-rule="evenodd">
        <g id="Group" transform="translate(5.000000, 12.000000)" stroke="#20458F" stroke-linejoin="round" stroke-width="4">
            <path d="M6.85714286,10.2857143 C4.01828571,10.2857143 1.71428571,12.5897143 1.71428571,15.4285714 C1.71428571,17.7445714 3.036,19.9285714 5.14285714,20.5714286" id="Stroke-59" stroke-linecap="round"></path>
            <path d="M30.8571429,61.7142857 L30.8571429,66.8571429 C30.8571429,69.6977143 28.5531429,72 25.7142857,72 C22.8754286,72 20.5714286,69.6977143 20.5714286,66.8571429 L20.5714286,61.1982857 L30.8571429,61.7142857 Z M51.4285714,66.8571429 C51.4285714,69.6977143 53.7325714,72 56.5714286,72 C59.4102857,72 61.7142857,69.6977143 61.7142857,66.8571429 L61.7142857,60.2417143 C59.9047619,61.0805714 56.5,61.8333333 51.5,62.5 L51.4285714,66.8571429 Z M57.1428571,31.4285714 C57.1428571,29.2165714 58.9308571,27.4285714 61.1428571,27.4285714 C63.3548571,27.4285714 65.1428571,29.2165714 65.1428571,31.4285714" id="Stroke-60"></path>
            <path d="M78.3411429,30.8571429 C75.9582857,19.1194286 65.5834286,10.2857143 53.1428571,10.2857143 L51.4285714,10.2857143 L51.4285714,0 C45.7457143,0 41.1428571,4.60285714 41.1428571,10.2857143 L25.7142857,10.2857143 C11.5131429,10.2857143 0,21.7988571 0,36 C0,44.4034286 4.05085714,51.8434286 10.2857143,56.5354286 L10.2857143,66.8571429 C10.2857143,69.6977143 12.5897143,72 15.4285714,72 C18.2674286,72 20.5714286,69.6977143 20.5714286,66.8571429 L20.5714286,61.1982857 C22.2325714,61.536 23.9537143,61.7142857 25.7142857,61.7142857 L41.1428571,61.7142857 L41.1428571,66.8571429 C41.1428571,69.6977143 43.4468571,72 46.2857143,72 C49.1245714,72 51.4285714,69.6977143 51.4285714,66.8571429 L51.4285714,61.7142857 L53.1428571,61.7142857 C64.3337143,61.7142857 73.8291429,54.552 77.3622857,44.5714286 L80.5714286,44.5714286 C83.4102857,44.5714286 85.7142857,42.2691429 85.7142857,39.4285714 L85.7142857,30.8571429 L78.3411429,30.8571429 Z" id="Stroke-61" stroke-linecap="round"></path>
            <path d="M65.1428571,13.2771429 L65.1428571,0 C59.46,0 54.8571429,4.60285714 54.8571429,10.2857143 C54.8571429,10.3114286 54.8605714,10.3371429 54.8605714,10.3611429" id="Stroke-62"></path>
        </g>
        <text id="€" font-family="GothamRounded-Medium, Gotham Rounded" font-size="36" font-weight="400" fill="#FFC928">
            <tspan x="25.04" y="61">€</tspan>
        </text>
    </g>
</svg>